<?xml version="1.0" encoding="utf-8"?>
<!-- Generator: Adobe Illustrator 16.0.0, SVG Export Plug-In . SVG Version: 6.00 Build 0)  -->
<!DOCTYPE svg PUBLIC "-//W3C//DTD SVG 1.1//EN" "http://www.w3.org/Graphics/SVG/1.1/DTD/svg11.dtd">
<svg version="1.1" id="Layer_1" xmlns="http://www.w3.org/2000/svg" xmlns:xlink="http://www.w3.org/1999/xlink" x="0px" y="0px"
	 width="200px" height="200px" viewBox="0 0 200 200" enable-background="new 0 0 200 200" xml:space="preserve">
<polygon fill="#999999" points="-128.342,130.247 -182.571,180.7 -132.116,126.473 "/>
<polygon fill="#D1D1D1" points="-144.382,144.803 -182.175,180.252 -144.755,144.409 "/>
<path fill="#F0D2D9" stroke="#EACAD2" stroke-miterlimit="10" d="M-129.099,149.406c-7.625,9.951-32.571-14.918-22.706-22.707
	c7.671-6.057,31.385-17.458,31.385-17.458l9.083,9.083C-111.337,118.324-123.143,141.635-129.099,149.406z"/>
<ellipse transform="matrix(0.7071 0.7071 -0.7071 0.7071 47.9878 119.0514)" fill="#F0D2D9" stroke="#E8CFD7" stroke-miterlimit="10" cx="-119.714" cy="117.452" rx="14.119" ry="6.885"/>
<polygon fill="#F0D2D9" points="-12.241,53.762 -178.407,72.511 -111.561,-80.769 "/>
<g opacity="0.4">
	<path fill="#B5B1B1" d="M199.906,102.095c0,53.518-43.006,96.905-96.067,96.905c-53.06,0-96.065-43.388-96.065-96.905
		S50.779,5.189,103.839,5.189C156.9,5.189,199.906,48.577,199.906,102.095z"/>
	<ellipse fill="#B5B1B1" cx="100.79" cy="105.171" rx="59.469" ry="59.988"/>
	<polygon fill="#B5B1B1" points="167.121,175.265 143.915,146.3 172.625,169.708 	"/>
	<path fill="#B5B1B1" d="M199.906,102.095c0,53.518-43.006,96.905-96.067,96.905c-53.06,0-96.065-43.388-96.065-96.905
		S50.779,5.189,103.839,5.189C156.9,5.189,199.906,48.577,199.906,102.095z"/>
	<ellipse fill="#B5B1B1" cx="100.79" cy="105.171" rx="59.469" ry="59.988"/>
	<polygon fill="#B5B1B1" points="167.121,175.265 143.915,146.3 172.625,169.708 	"/>
</g>
<g>
	<path fill="#FF104F" d="M192.132,97.311c0,52.689-43.006,95.405-96.066,95.405C43.005,192.716,0,150,0,97.311
		S43.005,1.905,96.065,1.905C149.126,1.905,192.132,44.621,192.132,97.311z"/>
	<ellipse fill="#FF558A" cx="93.016" cy="100.339" rx="59.469" ry="59.059"/>
	<polygon fill="#FF80AA" points="159.347,169.348 136.141,140.831 164.851,163.877 	"/>
</g>
</svg>
