<?xml version="1.0" encoding="utf-8"?>
<!-- Generator: Adobe Illustrator 16.0.0, SVG Export Plug-In . SVG Version: 6.00 Build 0)  -->
<!DOCTYPE svg PUBLIC "-//W3C//DTD SVG 1.1//EN" "http://www.w3.org/Graphics/SVG/1.1/DTD/svg11.dtd">
<svg version="1.1" id="Layer_1" xmlns="http://www.w3.org/2000/svg" xmlns:xlink="http://www.w3.org/1999/xlink" x="0px" y="0px"
	 width="50px" height="50px" viewBox="0 0 50 50" enable-background="new 0 0 50 50" xml:space="preserve">
<path fill="none" stroke="#2C6813" stroke-miterlimit="10" d="M5.592,36.984c0,0-4.107,4.516-2.482,8.266
	c0,0-0.398-5.641,1.051-4.133"/>
<path fill="none" stroke="#B73A18" stroke-miterlimit="10" d="M31.641,26.705c0,0-1.615,4.013-4.842,2.608"/>
<path fill="none" stroke="#2C6813" stroke-miterlimit="10" d="M5.047,37.654c0,0-3.813,4.596,1.438,5.596"/>
<path fill="none" stroke="#2C6813" stroke-miterlimit="10" d="M40.516,34.849c0,0,1.703,5.861,5.75,6.437
	c0,0-5.018-2.608-2.975-3.057"/>
<path fill="none" stroke="#2C6813" stroke-miterlimit="10" d="M43.291,38.229c0,0-0.516,3.01,3.207,0.287"/>
<path fill="none" stroke="#2C6813" stroke-miterlimit="10" d="M40.803,34.663c0,0,1.926,5.652,5.521,1.699"/>
<path fill="none" stroke="#2C6813" stroke-miterlimit="10" d="M45.906,39.915c0,0,1.129,1.029,2.828-1.028"/>
<path fill="none" stroke="#2C6813" stroke-miterlimit="10" d="M41.518,35.85c0,0,4.742,0.619,5.525-0.659"/>
<path fill="none" stroke="#2C6813" stroke-miterlimit="10" d="M45,39.956c0,0,0.623,1.854,3.197,1.96"/>
<path fill="none" stroke="#2C6813" stroke-miterlimit="10" d="M42.203,38.27c0,0-1.727,2.892,0.115,2.995"/>
<path fill="none" stroke="#2C6813" stroke-miterlimit="10" d="M43.438,38.679c0.313,4.274,1.738,5.296,1.738,5.296"/>
<path fill="#E24D1A" stroke="#B73A18" stroke-miterlimit="10" d="M39.629,27.15c2.945,2.441,3.42,8.528,1.24,10.798l0,0
	c-2.18,2.269-6.377,0.055-8.92-2.804c-3.822-4.299-10.559-10.696-14.323-15.042c-2.503-2.89-7.962-7.769-5.782-10.038l0,0
	c2.18-2.269,5.357,0.831,8.331,3.235C24.833,17.067,35.016,23.325,39.629,27.15z"/>
<path fill="#772613" stroke="#772613" stroke-miterlimit="10" d="M33.053,22.4c0,0-2.248,0.982-3.914,2.836
	c-1.76,1.959-2.023,4.799-2.023,4.799l-2.652-2.651l5.558-6.989L33.053,22.4z"/>
<path fill="#E24D1A" stroke="#B73A18" stroke-miterlimit="10" d="M15.706,35.804c-2.711,2.695-8.377,3.155-10.113,1.181l0,0
	c-1.736-1.975,0.967-5.809,3.997-8.139c4.556-3.502,11.505-9.669,16.097-13.119c3.052-2.294,8.402-7.29,10.138-5.315l0,0
	c1.736,1.975-1.617,4.884-4.299,7.605C27.322,22.278,19.954,31.583,15.706,35.804z"/>
<path fill="none" stroke="#B73A18" stroke-miterlimit="10" d="M28.578,13.459c0,0,0.031,1.791,1.281,2.166"/>
<path fill="none" stroke="#B73A18" stroke-miterlimit="10" d="M29.859,19.805c0,0-1.75-0.305-1.75-1.305"/>
<path fill="none" stroke="#B73A18" stroke-miterlimit="10" d="M22.985,17.5c0,0-0.25,1.875,1.5,2.5"/>
<path fill="none" stroke="#B73A18" stroke-miterlimit="10" d="M20.696,22.25c0,0-0.474,4.301,3.032,4.588"/>
<path fill="none" stroke="#B73A18" stroke-miterlimit="10" d="M15.058,24.556c0,0-2.544,3.5,0.358,5.487"/>
<path fill="none" stroke="#B73A18" stroke-miterlimit="10" d="M11.605,32.325c0,0,1.615,4.013,4.841,2.608"/>
<path fill="none" stroke="#2C6813" stroke-miterlimit="10" d="M4.161,41.117c0,0-2.836,1.133,1.432,2.883"/>
<path fill="none" stroke="#2C6813" stroke-miterlimit="10" d="M3.237,44.75c0,0-0.288,1.5,2.355,1.875"/>
<path fill="none" stroke="#2C6813" stroke-miterlimit="10" d="M4.41,38.885c0,0,1.95,4.365,3.45,4.365"/>
<path fill="none" stroke="#2C6813" stroke-miterlimit="10" d="M2.729,44c0,0-1.255,1.5,0,3.75"/>
<path fill="none" stroke="#2C6813" stroke-miterlimit="10" d="M3.373,42.585c0,0-3.368,0.04-2.493,1.665"/>
<path fill="none" stroke="#2C6813" stroke-miterlimit="10" d="M3.71,40.452c0,0-1.1-2.077-2.975-0.577"/>
<path fill="none" stroke="#2C6813" stroke-miterlimit="10" d="M4.281,38.932c0,0-4.363,0.103-4.28,1.97"/>
<path fill="none" stroke="#2C6813" stroke-miterlimit="10" d="M4.882,39.366c-4.059,1.38-4.687,3.018-4.687,3.018"/>
<path fill="#772613" stroke="#772613" stroke-miterlimit="10" d="M30.234,20.418"/>
<path fill="none" stroke="#B73A18" stroke-miterlimit="10" d="M19.887,13.459c0,0-0.031,1.791-1.281,2.166"/>
<path fill="none" stroke="#B73A18" stroke-miterlimit="10" d="M17.606,19.805c0,0,1.75-0.305,1.75-1.305"/>
<path fill="none" stroke="#B73A18" stroke-miterlimit="10" d="M35.373,23.734c0,0,1.195,4.157-2.211,5.035"/>
<path fill="none" stroke="#B73A18" stroke-miterlimit="10" d="M36.859,32.325c0,0-1.615,4.013-4.84,2.608"/>
</svg>
