<?xml version="1.0" encoding="utf-8"?>
<!-- Generator: Adobe Illustrator 16.0.0, SVG Export Plug-In . SVG Version: 6.00 Build 0)  -->
<!DOCTYPE svg PUBLIC "-//W3C//DTD SVG 1.1//EN" "http://www.w3.org/Graphics/SVG/1.1/DTD/svg11.dtd">
<svg version="1.1" id="Layer_1" xmlns="http://www.w3.org/2000/svg" xmlns:xlink="http://www.w3.org/1999/xlink" x="0px" y="0px"
	 width="75px" height="75px" viewBox="0 0 75 75" enable-background="new 0 0 75 75" xml:space="preserve">
<ellipse fill="#231F20" stroke="#231F20" stroke-miterlimit="10" cx="37.459" cy="43.337" rx="24.242" ry="10.984"/>
<path fill="#FFFFFF" stroke="#000000" stroke-miterlimit="10" d="M23.228,45.761c0,0-19.501,2.357-10.623-13.74
	c0,0,4.601-3.743,5.138,1.477c0,0-4.852,7.828,5.256,7.941"/>
<path fill="#FFFFFF" stroke="#000000" stroke-miterlimit="10" d="M48.46,11.511c0,0,5.941-3.204,7.131-1.739
	c-0.229-1.647,1.054,5.644,0,7.048"/>
<path fill="#FFFFFF" stroke="#000000" stroke-miterlimit="10" d="M51.128,32.638l0.854,13.633c2.209,1.965,5.48,1.4,6.103,0.68
	c0,0-0.123-2.195-2.075-1.707l0.366-12.605"/>
<path fill="none" stroke="#000000" stroke-miterlimit="10" d="M45.395-29.245"/>
<path fill="none" stroke="#000000" stroke-miterlimit="10" d="M42.585,12.535"/>
<path fill="#FFFFFF" stroke="#000000" stroke-miterlimit="10" d="M35.395,12.901c-0.641,0.366-29.473,17.791-10.491,33.594
	c6.688,5.566,42.06,4.85,30.252-17.209"/>
<path fill="#FFFFFF" stroke="#000000" stroke-miterlimit="10" d="M37.433,43.962l2.318,4.99c0,0,3.784,3.01,6.103,0.607
	c0,0-0.123-1.965-2.075-1.527l-1.83-10.619"/>
<path fill="#FFFFFF" stroke="#000000" stroke-miterlimit="10" d="M31.837,26.577c7.496,6.682,19.507,2.928,19.507,2.928
	c3.343,1.189,6.817-3.799,6.817-3.799c2.197-4.896-2.24-9.29-2.24-9.29s-1.314-5.711-9.018-6.316c0,0-7.406-1.592-11.509,2.219"/>
<g>
	<path fill="#FFFFFF" stroke="#000000" stroke-miterlimit="10" d="M36.974,12.975c0,0-5.941-3.204-7.131-1.739
		c0.229-1.646-1.053,5.645,0,7.048"/>
	<path fill="#FFFFFF" stroke="#000000" stroke-miterlimit="10" d="M36.241,13.667c0,0-4.043-2.205-4.996-1.033
		c0.186-1.317-1.179,3.902-0.336,5.025"/>
</g>
<path fill="none" stroke="#000000" stroke-miterlimit="10" d="M52.214,23.977c0,0,0.833,2.168-1.21,2.367
	c0,0-1.21,0.443-2.081-1.885c-0.871-2.33,0.037,1.846-1.174,2.488s-3.558,0.16-4.692-0.604"/>
<path stroke="#000000" stroke-miterlimit="10" d="M49.515,22.241c-0.271-0.574-2.309-0.414-2.535,0.18
	c-0.196,0.516,1.539,1.582,1.539,1.582S49.729,22.7,49.515,22.241z"/>
<path fill="none" stroke="#000000" stroke-miterlimit="10" d="M37.718,20.223c0,0,5.033-1.183,6.041,2.018"/>
<g>
	<g>
		<path d="M42.751,20.992c1.935,0,1.935-3,0-3S40.816,20.992,42.751,20.992L42.751,20.992z"/>
	</g>
</g>
<g>
	<g>
		<path d="M50.715,20.533c1.935,0,1.935-3,0-3S48.78,20.533,50.715,20.533L50.715,20.533z"/>
	</g>
</g>
<path fill="none" stroke="#000000" stroke-miterlimit="10" d="M56.206,19.492c0,0-5.034-1.184-6.041,2.017"/>
<path fill="none" stroke="#000000" stroke-miterlimit="10" d="M42.751,24.002c0,0-4.63-1.59-6.51,0"/>
<path fill="none" stroke="#000000" stroke-miterlimit="10" d="M42.376,25.991c0,0-3.792-0.998-4.658,1.988"/>
<path fill="none" stroke="#000000" stroke-miterlimit="10" d="M51.618,22.54c0,0,4.631-1.593,6.511,0"/>
<path fill="none" stroke="#000000" stroke-miterlimit="10" d="M51.995,25.258c0,0,3.791-0.998,4.657,1.988"/>
<text transform="matrix(1 0 0 1 1 68.2832)" font-family="'SDSamliphopangcheTTFOutline'" font-size="17.1391">TIERHEIM</text>
</svg>
