<?xml version="1.0" encoding="utf-8"?>
<!-- Generator: Adobe Illustrator 16.0.0, SVG Export Plug-In . SVG Version: 6.00 Build 0)  -->
<!DOCTYPE svg PUBLIC "-//W3C//DTD SVG 1.1//EN" "http://www.w3.org/Graphics/SVG/1.1/DTD/svg11.dtd">
<svg version="1.1" id="Layer_1" xmlns="http://www.w3.org/2000/svg" xmlns:xlink="http://www.w3.org/1999/xlink" x="0px" y="0px"
	 width="500px" height="500px" viewBox="0 0 500 500" enable-background="new 0 0 500 500" xml:space="preserve">
<path fill="#878787" stroke="#878787" stroke-miterlimit="10" d="M0,38.159C0,20.372,14.421,5.954,32.205,5.954h271.954
	c17.787,0,32.205,14.419,32.205,32.205v431.191c0,17.785-14.418,32.204-32.205,32.204H32.205C14.421,501.555,0,487.136,0,469.351
	V38.159z"/>
<path fill="#442300" d="M0.055,33.205C0.055,15.418,14.475,1,32.261,1h271.953C322,1,336.418,15.418,336.419,33.205v431.191
	c0,17.784-14.418,32.205-32.205,32.205H32.261c-17.786,0-32.206-14.421-32.206-32.205V33.205z"/>
<rect x="38.467" y="40.844" fill="#878787" stroke="#878787" stroke-miterlimit="10" width="257.642" height="438.35"/>
<rect x="38.473" y="35.477" fill="#FFFFFF" width="257.641" height="438.348"/>
<g>
	<path fill="none" stroke="#878787" stroke-miterlimit="10" d="M62.618,41.738c0-12.352,3.756-22.364,16.106-22.364h174.443
		c12.349,0,14.312,10.012,14.312,22.364l0,0c0,12.352-1.963,22.364-14.312,22.364H78.724C66.374,64.102,62.618,54.09,62.618,41.738
		L62.618,41.738z"/>
	<path fill="#878787" d="M64.412,24.741c0-3.953,3.204-7.158,7.155-7.157h188.756c3.951,0,7.156,3.204,7.156,7.157l0,0
		c0,3.952-3.204,7.157-7.156,7.157H71.566C67.615,31.898,64.412,28.694,64.412,24.741L64.412,24.741z"/>
</g>
<path fill="none" stroke="#918087" stroke-miterlimit="10" d="M62.618,37.268c0-12.352,3.756-22.365,16.106-22.364h174.443
	c12.349,0,14.312,10.012,14.312,22.364l0,0c0,12.352-1.963,22.365-14.312,22.365H78.724C66.374,59.633,62.618,49.62,62.618,37.268
	L62.618,37.268z"/>
<path fill="#8E8E8E" d="M64.412,20.271c0-3.953,3.204-7.158,7.155-7.158h188.756c3.951,0,7.156,3.204,7.156,7.158l0,0
	c0,3.952-3.204,7.156-7.156,7.156H71.566C67.615,27.427,64.412,24.223,64.412,20.271L64.412,20.271z"/>
<path fill="#FFFFFF" d="M64.412,18.479c0-0.495,0.399-0.896,0.887-0.895h201.065c0.487,0,0.887,0.401,0.887,0.895l0,0
	c0,0.495-0.399,0.895-0.887,0.895H65.298C64.811,19.374,64.412,18.974,64.412,18.479L64.412,18.479z"/>
<path fill="#FFFFFF" stroke="#231F20" stroke-miterlimit="10" d="M383.172,281.701c0-15.593,12.643-28.238,28.236-28.238H452
	c15.594,0,28.236,12.645,28.236,28.238v7.062C480.236,304.355,467.594,317,452,317h-14.707h-9.412l-24.708,15.636L411.408,317
	c-15.594,0-28.236-12.644-28.236-28.237V281.701z"/>
<text transform="matrix(1 0 0 1 402.4961 289.0645)" font-family="'SDSamliphopangcheOutline-KSCpc-EUC-H'" font-size="14.1187">어서오시개</text>
<text transform="matrix(0.9337 0 0 1 105.105 104.6045)"><tspan x="0" y="0" fill="#0000FF" font-family="'SDSamliphopangcheTTFBasic'" font-size="24">무료</tspan><tspan x="37.919" y="0" font-family="'SDSamliphopangcheTTFBasic'" font-size="24"> 입소 안내 </tspan><tspan x="2.76" y="28.8" fill="#0000FF" font-family="'SDSamliphopangcheTTFBasic'" font-size="24">면제</tspan><tspan x="40.679" y="28.8" font-family="'SDSamliphopangcheTTFBasic'" font-size="24"> 지원 대상</tspan><tspan x="-70.643" y="57.6" font-family="'SDSamliphopangcheTTFBasic'" font-size="24">소형견의 기준으로 품종견 or 묘</tspan><tspan x="21.983" y="86.4" font-family="'SDSamliphopangcheTTFBasic'" font-size="24"> 8세 이하 </tspan><tspan x="-31.2" y="115.2" font-family="'SDSamliphopangcheTTFBasic'" font-size="24">결격 사유가</tspan><tspan x="69.119" y="115.2" stroke="#FF0000" stroke-miterlimit="10" font-family="'SDSamliphopangcheTTFBasic'" font-size="24"> </tspan><tspan x="74.639" y="115.2" fill="#FF0000" font-family="'SDSamliphopangcheTTFBasic'" font-size="24">없는</tspan><tspan x="112.558" y="115.2" font-family="'SDSamliphopangcheTTFBasic'" font-size="24"> 경우 </tspan><tspan x="18.96" y="144" font-family="'SDSamliphopangcheTTFBasic'" font-size="24"> 입소 절차 </tspan><tspan x="21.72" y="172.8" font-family="'SDSamliphopangcheTTFBasic'" font-size="24">입소 신청 </tspan><tspan x="-27.696" y="201.6" font-family="'SDSamliphopangcheTTFBasic'" font-size="24"> 1:1 상담 진행 후 결정</tspan><tspan x="-40.68" y="230.4" font-family="'SDSamliphopangcheTTFBasic'" font-size="24">보호 기간중 면회 및 외출</tspan><tspan x="-21.72" y="259.2" font-family="'SDSamliphopangcheTTFBasic'" font-size="24">입양 후의 소식 제공 </tspan></text>
<g>
	<g>
		<defs>
			<rect id="SVGID_1_" x="277.938" y="279.047" width="230.509" height="230.509"/>
		</defs>
		<clipPath id="SVGID_2_">
			<use xlink:href="#SVGID_1_"  overflow="visible"/>
		</clipPath>
		<g clip-path="url(#SVGID_2_)">
			<defs>
				<rect id="SVGID_3_" x="277.938" y="279.047" width="230.509" height="230.509"/>
			</defs>
			<clipPath id="SVGID_4_">
				<use xlink:href="#SVGID_3_"  overflow="visible"/>
			</clipPath>
			<path clip-path="url(#SVGID_4_)" fill="#FFFFFF" d="M391.893,428.768l-9.605,40.613c0,0-11.91,10.592-19.208,2.142
				c0,0,0.385-6.916,6.53-5.378l5.763-37.377"/>
			<path clip-path="url(#SVGID_4_)" fill="none" stroke="#000000" stroke-miterlimit="10" d="M391.893,428.768l-9.605,40.613
				c0,0-11.91,10.592-19.208,2.142c0,0,0.385-6.916,6.53-5.378l5.763-37.377"/>
			<path clip-path="url(#SVGID_4_)" fill="#FFFFFF" d="M463.349,438.483c17.673-2.69,10.805,17.908,1.152,17.288"/>
			<path clip-path="url(#SVGID_4_)" d="M463.349,439.636c4.907-0.652,10.602,0.502,9.672,6.649c-0.618,4.11-4.089,8.456-8.52,8.334
				c-1.488-0.042-1.484,2.263,0,2.305c5.717,0.156,10.021-5.232,10.815-10.509c1.128-7.461-5.756-9.911-11.968-9.084
				C461.896,437.524,461.878,439.832,463.349,439.636"/>
			<path clip-path="url(#SVGID_4_)" fill="#FFFFFF" d="M385.361,411.975c-82.599,46.486-53.785-25.355-53.785-25.355
				c27.278-84.521,75.298-29.582,76.45-29.582l31.119,38.034c0,0,46.489,53.015,12.678,76.451c0,0-70.688,16.522-71.84-11.908
				c0,0-10.756-28.816-1.923-42.262"/>
			<path clip-path="url(#SVGID_4_)" fill="none" stroke="#000000" stroke-miterlimit="10" d="M385.361,411.975
				c-82.599,46.486-53.785-25.355-53.785-25.355c27.278-84.521,75.298-29.582,76.45-29.582l31.119,38.034
				c0,0,46.489,53.015,12.678,76.451c0,0-70.688,16.522-71.84-11.908c0,0-10.756-28.816-1.923-42.262"/>
			<path clip-path="url(#SVGID_4_)" fill="#FFFFFF" d="M398.424,360.11l34.191,13.445c0,0,6.913,5.763-6.53,23.821
				c0,0-9.99,13.445-33.424-24.589"/>
			<path clip-path="url(#SVGID_4_)" fill="none" stroke="#000000" stroke-miterlimit="10" d="M398.424,360.11l34.191,13.445
				c0,0,6.913,5.763-6.53,23.821c0,0-9.99,13.445-33.424-24.589"/>
			<path clip-path="url(#SVGID_4_)" d="M368.84,387.387c4.461,0,4.461-6.916,0-6.916C364.38,380.471,364.38,387.387,368.84,387.387"
				/>
			<path clip-path="url(#SVGID_4_)" d="M329.038,415.309c0.193-0.06,0.392-0.11,0.592-0.149c-0.469,0.048-0.52,0.062-0.147,0.041
				c0.397,0.021,0.303,0.003-0.285-0.048c0.529,0.107-0.647-0.376-0.758-0.473c-0.349-0.5-0.432-0.604-0.248-0.305
				c-0.218-0.576-0.275-0.694-0.177-0.349c-0.063-0.624-0.083-0.751-0.067-0.375c0.026,0.71,0.181-0.859,0.03-0.127
				c-0.188,0.917,0.227-0.341-0.034,0.2c-0.069,0.139-0.146,0.275-0.228,0.406c-0.415,0.696,0.502-0.556-0.042,0.069
				c-0.113,0.122-0.23,0.239-0.354,0.35c-0.605,0.581,0.607-0.39-0.114,0.067c-0.15,0.087-0.304,0.17-0.462,0.244
				c0.823-0.408-0.174,0-0.297,0.034c-0.227,0.065-0.454,0.116-0.685,0.162c0.396-0.039,0.4-0.044,0.016-0.012
				c-0.172,0.007-0.346,0.005-0.521-0.008c0.989,0.042-0.238-0.227,0.717,0.206c-0.309-0.187-0.223-0.109,0.261,0.231
				c-0.239-0.26-0.164-0.16,0.228,0.297c0.215,0.574,0.268,0.688,0.16,0.346c0.255,0.855,0.051,0.58,0.051,0.18
				c0.002-0.554-0.205,0.832,0.06-0.113c0.122-0.349,0.088-0.288-0.104,0.175c0.097-0.226,0.218-0.439,0.341-0.652
				c0.088-0.149,0.18-0.293,0.276-0.434c-0.468,0.701,0.014-0.004,0.129-0.13c0.148-0.169,1.189-1.024,0.564-0.567
				c1.522-1.109,2.266-2.98,1.24-4.73c-0.88-1.503-3.204-2.354-4.729-1.241c-2.498,1.819-5.106,4.911-4.658,8.255
				c0.614,4.602,4.859,5.773,8.86,4.597c3.495-1.025,5.875-4.022,6.205-7.613c0.173-1.875-0.864-3.661-2.355-4.704
				c-1.531-1.073-3.59-0.982-5.304-0.499C322.914,409.848,324.737,416.521,329.038,415.309"/>
			<path clip-path="url(#SVGID_4_)" fill="#FFFFFF" d="M408.026,458.855l-7.298,15.707c0,0-11.912,9.474-19.21,1.918
				c0,0,0.387-6.188,6.532-4.811l5.763-33.429"/>
			<path clip-path="url(#SVGID_4_)" fill="none" stroke="#000000" stroke-miterlimit="10" d="M408.026,458.855l-7.298,15.707
				c0,0-11.912,9.474-19.21,1.918c0,0,0.387-6.188,6.532-4.811l5.763-33.429"/>
			<path clip-path="url(#SVGID_4_)" fill="#FF8383" d="M340.99,456.146l6.051,11.343c0,0,0.834,2.858-2.875,3.626
				c0,0-20.945,6.602-40.251,0c0,0-4.251-1.466-2.118-4.609l6.354-10.359C308.151,456.146,329.34,461.921,340.99,456.146"/>
			<path clip-path="url(#SVGID_4_)" fill="none" stroke="#000000" stroke-miterlimit="10" d="M340.99,456.146l6.051,11.343
				c0,0,0.834,2.858-2.875,3.626c0,0-20.945,6.602-40.251,0c0,0-4.251-1.466-2.118-4.609l6.354-10.359
				C308.151,456.146,329.34,461.921,340.99,456.146z"/>
			<path clip-path="url(#SVGID_4_)" fill="#9E4B00" d="M340.148,455.413c0,0,1.72-5.775-3.004-5.775c0,0-1.316-8.836-7.095-5.763
				c0,0-7.064-5.139-10.071-0.648c0,0-5.187-1.842-4.826,3.877c0,0-5.168-0.548-3.024,3.458c0,0-7.003,1.401-3.089,4.852
				C309.039,455.413,338,460.037,340.148,455.413"/>
			<path clip-path="url(#SVGID_4_)" fill="none" stroke="#000000" stroke-miterlimit="10" d="M340.148,455.413
				c0,0,1.72-5.775-3.004-5.775c0,0-1.316-8.836-7.095-5.763c0,0-7.064-5.139-10.071-0.648c0,0-5.187-1.842-4.826,3.877
				c0,0-5.168-0.548-3.024,3.458c0,0-7.003,1.401-3.089,4.852C309.039,455.413,338,460.037,340.148,455.413z"/>
			<path clip-path="url(#SVGID_4_)" fill="#FFFFFF" d="M316.377,465.948l7.742,0.893l7.746-0.893
				c0.79,0.288,1.008,1.729,1.008,1.729c0,5.619-4.971-0.36-4.971-0.36h-7.563c0,0-4.97,5.979-4.97,0.36
				C315.37,467.678,315.585,466.236,316.377,465.948"/>
			<path clip-path="url(#SVGID_4_)" fill="none" stroke="#FFFFFF" stroke-miterlimit="10" d="M316.377,465.948l7.742,0.893
				l7.746-0.893c0.79,0.288,1.008,1.729,1.008,1.729c0,5.619-4.971-0.36-4.971-0.36h-7.563c0,0-4.97,5.979-4.97,0.36
				C315.37,467.678,315.585,466.236,316.377,465.948z"/>
			<path clip-path="url(#SVGID_4_)" fill="#FFFFFF" d="M331.864,465.472l-7.742-0.893l-7.746,0.893
				c-0.79-0.288-1.008-1.729-1.008-1.729c0-5.619,4.971,0.359,4.971,0.359h7.563c0,0,4.971-5.979,4.971-0.359
				C332.872,463.742,332.656,465.184,331.864,465.472"/>
			<path clip-path="url(#SVGID_4_)" fill="none" stroke="#FFFFFF" stroke-miterlimit="10" d="M331.864,465.472l-7.742-0.893
				l-7.746,0.893c-0.79-0.288-1.008-1.729-1.008-1.729c0-5.619,4.971,0.359,4.971,0.359h7.563c0,0,4.971-5.979,4.971-0.359
				C332.872,463.742,332.656,465.184,331.864,465.472z"/>
			<path clip-path="url(#SVGID_4_)" fill="#9E4B00" d="M333.401,451.78c0,0-0.866-5.901-4.804-5.229"/>
			<path clip-path="url(#SVGID_4_)" fill="none" stroke="#000000" stroke-miterlimit="10" d="M333.401,451.78
				c0,0-0.866-5.901-4.804-5.229"/>
			<path clip-path="url(#SVGID_4_)" fill="#9E4B00" d="M323.412,447.13c0,0-5.279-3.88-4.61,2.786"/>
			<path clip-path="url(#SVGID_4_)" fill="none" stroke="#000000" stroke-miterlimit="10" d="M323.412,447.13
				c0,0-5.279-3.88-4.61,2.786"/>
			<path clip-path="url(#SVGID_4_)" fill="#9E4B00" d="M327.83,453.277c0,0-3.169-6.837-7.491-1.496"/>
			<path clip-path="url(#SVGID_4_)" fill="none" stroke="#000000" stroke-miterlimit="10" d="M327.83,453.277
				c0,0-3.169-6.837-7.491-1.496"/>
		</g>
	</g>
</g>
<g>
	<path d="M116.578,443.523c-1.064,2.926-3.948,4.562-6.444,3.653c-2.494-0.905-3.655-4.013-2.592-6.938
		c1.064-2.926,6.937-7.46,9.432-6.553C119.469,434.593,117.642,440.598,116.578,443.523z"/>
	<path d="M111.687,424.213c-1.166,3.21-4.598,4.907-7.663,3.793s-4.604-4.62-3.438-7.83c1.168-3.209,8.426-7.271,11.492-6.156
		C115.146,415.134,112.856,421.004,111.687,424.213z"/>
	<path d="M93.737,415.682c-1.156,3.184-4.554,4.872-7.586,3.77c-3.031-1.103-4.551-4.578-3.393-7.762
		c1.157-3.185,8.335-8.438,11.366-7.336C97.157,405.457,94.894,412.497,93.737,415.682z"/>
	<path d="M75.925,424.407c-1.063,2.923-4.063,4.517-6.699,3.557c-2.636-0.958-3.91-4.106-2.847-7.03
		c1.064-2.924,4.511-8.061,7.146-7.103C76.163,414.791,76.99,421.482,75.925,424.407z"/>
	<path d="M102.822,444.578c6.952,7.314-12.396,26.473-18.268,18.269c-5.362-7.491-10.362-10.825-18.269-18.269
		c-7.346-6.915,10.091-13.223,18.269-18.267C93.141,421.016,95.64,437.021,102.822,444.578z"/>
</g>
<g>
	<path d="M276.293,443.387c0.69,0.962,0.586,2.22-0.236,2.809c-0.82,0.59-2.045,0.287-2.736-0.676
		c-0.69-0.962-0.854-3.78-0.033-4.369C274.107,440.561,275.602,442.424,276.293,443.387z"/>
	<path d="M269.176,440.776c0.759,1.057,0.555,2.498-0.453,3.223c-1.008,0.724-2.439,0.454-3.197-0.602
		c-0.759-1.057-0.477-4.209,0.533-4.933C267.066,437.741,268.419,439.72,269.176,440.776z"/>
	<path d="M262.643,444.584c0.751,1.047,0.553,2.477-0.445,3.192c-0.997,0.716-2.416,0.446-3.166-0.601
		c-0.753-1.047-0.861-4.43,0.135-5.146C260.164,441.314,261.891,443.537,262.643,444.584z"/>
	<path d="M261.56,452.054c0.688,0.961,0.546,2.245-0.322,2.867c-0.866,0.623-2.13,0.347-2.819-0.615
		c-0.689-0.961-1.564-3.147-0.697-3.77C258.59,449.914,260.869,451.091,261.56,452.054z"/>
	<path d="M273.67,447.935c3.791-0.614,5.656,9.578,1.818,9.661c-3.505,0.076-5.627,0.931-9.662,1.816
		c-3.75,0.823-1.988-6.009-1.816-9.66C264.189,445.917,269.755,448.568,273.67,447.935z"/>
</g>
</svg>
