<?xml version="1.0" encoding="utf-8"?>
<!-- Generator: Adobe Illustrator 16.0.0, SVG Export Plug-In . SVG Version: 6.00 Build 0)  -->
<!DOCTYPE svg PUBLIC "-//W3C//DTD SVG 1.1//EN" "http://www.w3.org/Graphics/SVG/1.1/DTD/svg11.dtd">
<svg version="1.1" id="Layer_1" xmlns="http://www.w3.org/2000/svg" xmlns:xlink="http://www.w3.org/1999/xlink" x="0px" y="0px"
	 width="500px" height="500px" viewBox="0 0 500 500" enable-background="new 0 0 500 500" xml:space="preserve">
<path fill="#878787" stroke="#878787" stroke-miterlimit="10" d="M499.055,469.351c0,17.785-14.421,32.204-32.205,32.204H194.896
	c-17.787,0-32.205-14.419-32.205-32.204V38.159c0-17.786,14.418-32.205,32.205-32.205H466.85c17.784,0,32.205,14.418,32.205,32.205
	V469.351z"/>
<path fill="#442300" d="M500,464.396c0,17.784-14.42,32.205-32.206,32.205H195.841c-17.787,0-32.205-14.421-32.205-32.205V33.205
	C163.637,15.418,178.055,1,195.841,1h271.953C485.58,1,500,15.418,500,33.205V464.396z"/>
<rect x="202.947" y="40.844" fill="#878787" stroke="#878787" stroke-miterlimit="10" width="257.642" height="438.35"/>
<rect x="202.942" y="35.477" fill="#FFFFFF" width="257.641" height="438.348"/>
<g>
	<path fill="none" stroke="#878787" stroke-miterlimit="10" d="M436.437,41.738c0,12.352-3.756,22.364-16.105,22.364H245.887
		c-12.349,0-14.312-10.012-14.312-22.364l0,0c0-12.352,1.963-22.364,14.312-22.364H420.33
		C432.681,19.374,436.437,29.386,436.437,41.738L436.437,41.738z"/>
	<path fill="#878787" d="M434.643,24.741c0,3.953-3.203,7.157-7.154,7.157H238.732c-3.952,0-7.156-3.205-7.156-7.157l0,0
		c0-3.953,3.205-7.157,7.156-7.157h188.756C431.439,17.583,434.643,20.788,434.643,24.741L434.643,24.741z"/>
</g>
<path fill="none" stroke="#918087" stroke-miterlimit="10" d="M436.437,37.268c0,12.352-3.756,22.365-16.105,22.365H245.887
	c-12.349,0-14.312-10.013-14.312-22.365l0,0c0-12.352,1.963-22.364,14.312-22.364H420.33
	C432.681,14.903,436.437,24.916,436.437,37.268L436.437,37.268z"/>
<path fill="#8E8E8E" d="M434.643,20.271c0,3.952-3.203,7.156-7.154,7.156H238.732c-3.952,0-7.156-3.204-7.156-7.156l0,0
	c0-3.954,3.205-7.158,7.156-7.158h188.756C431.439,13.113,434.643,16.318,434.643,20.271L434.643,20.271z"/>
<g>
	<defs>
		<rect id="SVGID_1_" x="-8.375" y="292.787" width="211.321" height="208.768"/>
	</defs>
	<clipPath id="SVGID_2_">
		<use xlink:href="#SVGID_1_"  overflow="visible"/>
	</clipPath>
	<g clip-path="url(#SVGID_2_)">
		<g>
			<defs>
				<rect id="SVGID_3_" x="-8.375" y="292.787" width="211.321" height="208.768"/>
			</defs>
			<defs>
				<rect id="SVGID_4_" x="-8.375" y="292.787" width="211.321" height="208.768"/>
			</defs>
			<defs>
				<rect id="SVGID_5_" x="-8.375" y="292.787" width="211.321" height="208.768"/>
			</defs>
			<defs>
				<rect id="SVGID_6_" x="-8.375" y="292.787" width="211.321" height="208.768"/>
			</defs>
			<defs>
				<rect id="SVGID_7_" x="-8.375" y="292.787" width="211.321" height="208.768"/>
			</defs>
			<defs>
				<rect id="SVGID_8_" x="-8.375" y="292.787" width="211.321" height="208.768"/>
			</defs>
			<defs>
				<rect id="SVGID_9_" x="-8.375" y="292.787" width="211.321" height="208.768"/>
			</defs>
			<defs>
				<rect id="SVGID_10_" x="-8.375" y="292.787" width="211.321" height="208.768"/>
			</defs>
			<defs>
				<rect id="SVGID_11_" x="-8.375" y="292.787" width="211.321" height="208.768"/>
			</defs>
			<defs>
				<rect id="SVGID_12_" x="-8.375" y="292.787" width="211.321" height="208.768"/>
			</defs>
			<defs>
				<rect id="SVGID_13_" x="-8.375" y="292.787" width="211.321" height="208.768"/>
			</defs>
			<defs>
				<rect id="SVGID_14_" x="-8.375" y="292.787" width="211.321" height="208.768"/>
			</defs>
			<defs>
				<rect id="SVGID_15_" x="-8.375" y="292.787" width="211.321" height="208.768"/>
			</defs>
			<defs>
				<rect id="SVGID_16_" x="-8.375" y="292.787" width="211.321" height="208.768"/>
			</defs>
			<defs>
				<rect id="SVGID_17_" x="-8.375" y="292.787" width="211.321" height="208.768"/>
			</defs>
			<defs>
				<rect id="SVGID_18_" x="-8.375" y="292.787" width="211.321" height="208.768"/>
			</defs>
			<defs>
				<rect id="SVGID_19_" x="-8.375" y="292.787" width="211.321" height="208.768"/>
			</defs>
			<defs>
				<rect id="SVGID_20_" x="-8.375" y="292.787" width="211.321" height="208.768"/>
			</defs>
			<defs>
				<rect id="SVGID_21_" x="-8.375" y="292.787" width="211.321" height="208.768"/>
			</defs>
			<defs>
				<rect id="SVGID_22_" x="-8.375" y="292.787" width="211.321" height="208.768"/>
			</defs>
			<defs>
				<rect id="SVGID_23_" x="-8.375" y="292.787" width="211.321" height="208.768"/>
			</defs>
			<defs>
				<rect id="SVGID_24_" x="-8.375" y="292.787" width="211.321" height="208.768"/>
			</defs>
			<defs>
				<rect id="SVGID_25_" x="-8.375" y="292.787" width="211.321" height="208.768"/>
			</defs>
			<defs>
				<rect id="SVGID_26_" x="-8.375" y="292.787" width="211.321" height="208.768"/>
			</defs>
			<defs>
				<rect id="SVGID_27_" x="-8.375" y="292.787" width="211.321" height="208.768"/>
			</defs>
			<defs>
				<rect id="SVGID_28_" x="-8.375" y="292.787" width="211.321" height="208.768"/>
			</defs>
			<defs>
				<rect id="SVGID_29_" x="-8.375" y="292.787" width="211.321" height="208.768"/>
			</defs>
			<defs>
				<rect id="SVGID_30_" x="-8.375" y="292.787" width="211.321" height="208.768"/>
			</defs>
			<defs>
				<rect id="SVGID_31_" x="-8.375" y="292.787" width="211.321" height="208.768"/>
			</defs>
			<defs>
				<rect id="SVGID_32_" x="-8.375" y="292.787" width="211.321" height="208.768"/>
			</defs>
			<defs>
				<rect id="SVGID_33_" x="-8.375" y="292.787" width="211.321" height="208.768"/>
			</defs>
			<defs>
				<rect id="SVGID_34_" x="-8.375" y="292.787" width="211.321" height="208.768"/>
			</defs>
			<defs>
				<rect id="SVGID_35_" x="-8.375" y="292.787" width="211.321" height="208.768"/>
			</defs>
			<defs>
				<rect id="SVGID_36_" x="-8.375" y="292.787" width="211.321" height="208.768"/>
			</defs>
			<defs>
				<rect id="SVGID_37_" x="-8.375" y="292.787" width="211.321" height="208.768"/>
			</defs>
			<defs>
				<rect id="SVGID_38_" x="-8.375" y="292.787" width="211.321" height="208.768"/>
			</defs>
			<defs>
				<rect id="SVGID_39_" x="-8.375" y="292.787" width="211.321" height="208.768"/>
			</defs>
			<defs>
				<rect id="SVGID_40_" x="-8.375" y="292.787" width="211.321" height="208.768"/>
			</defs>
			<defs>
				<rect id="SVGID_41_" x="-8.375" y="292.787" width="211.321" height="208.768"/>
			</defs>
			<defs>
				<rect id="SVGID_42_" x="-8.375" y="292.787" width="211.321" height="208.768"/>
			</defs>
			<defs>
				<rect id="SVGID_43_" x="-8.375" y="292.787" width="211.321" height="208.768"/>
			</defs>
			<clipPath id="SVGID_44_">
				<use xlink:href="#SVGID_3_"  overflow="visible"/>
			</clipPath>
			<clipPath id="SVGID_45_" clip-path="url(#SVGID_44_)">
				<use xlink:href="#SVGID_4_"  overflow="visible"/>
			</clipPath>
			<clipPath id="SVGID_46_" clip-path="url(#SVGID_45_)">
				<use xlink:href="#SVGID_5_"  overflow="visible"/>
			</clipPath>
			<clipPath id="SVGID_47_" clip-path="url(#SVGID_46_)">
				<use xlink:href="#SVGID_6_"  overflow="visible"/>
			</clipPath>
			<clipPath id="SVGID_48_" clip-path="url(#SVGID_47_)">
				<use xlink:href="#SVGID_7_"  overflow="visible"/>
			</clipPath>
			<clipPath id="SVGID_49_" clip-path="url(#SVGID_48_)">
				<use xlink:href="#SVGID_8_"  overflow="visible"/>
			</clipPath>
			<clipPath id="SVGID_50_" clip-path="url(#SVGID_49_)">
				<use xlink:href="#SVGID_9_"  overflow="visible"/>
			</clipPath>
			<clipPath id="SVGID_51_" clip-path="url(#SVGID_50_)">
				<use xlink:href="#SVGID_10_"  overflow="visible"/>
			</clipPath>
			<clipPath id="SVGID_52_" clip-path="url(#SVGID_51_)">
				<use xlink:href="#SVGID_11_"  overflow="visible"/>
			</clipPath>
			<clipPath id="SVGID_53_" clip-path="url(#SVGID_52_)">
				<use xlink:href="#SVGID_12_"  overflow="visible"/>
			</clipPath>
			<clipPath id="SVGID_54_" clip-path="url(#SVGID_53_)">
				<use xlink:href="#SVGID_13_"  overflow="visible"/>
			</clipPath>
			<clipPath id="SVGID_55_" clip-path="url(#SVGID_54_)">
				<use xlink:href="#SVGID_14_"  overflow="visible"/>
			</clipPath>
			<clipPath id="SVGID_56_" clip-path="url(#SVGID_55_)">
				<use xlink:href="#SVGID_15_"  overflow="visible"/>
			</clipPath>
			<clipPath id="SVGID_57_" clip-path="url(#SVGID_56_)">
				<use xlink:href="#SVGID_16_"  overflow="visible"/>
			</clipPath>
			<clipPath id="SVGID_58_" clip-path="url(#SVGID_57_)">
				<use xlink:href="#SVGID_17_"  overflow="visible"/>
			</clipPath>
			<clipPath id="SVGID_59_" clip-path="url(#SVGID_58_)">
				<use xlink:href="#SVGID_18_"  overflow="visible"/>
			</clipPath>
			<clipPath id="SVGID_60_" clip-path="url(#SVGID_59_)">
				<use xlink:href="#SVGID_19_"  overflow="visible"/>
			</clipPath>
			<clipPath id="SVGID_61_" clip-path="url(#SVGID_60_)">
				<use xlink:href="#SVGID_20_"  overflow="visible"/>
			</clipPath>
			<clipPath id="SVGID_62_" clip-path="url(#SVGID_61_)">
				<use xlink:href="#SVGID_21_"  overflow="visible"/>
			</clipPath>
			<clipPath id="SVGID_63_" clip-path="url(#SVGID_62_)">
				<use xlink:href="#SVGID_22_"  overflow="visible"/>
			</clipPath>
			<clipPath id="SVGID_64_" clip-path="url(#SVGID_63_)">
				<use xlink:href="#SVGID_23_"  overflow="visible"/>
			</clipPath>
			<clipPath id="SVGID_65_" clip-path="url(#SVGID_64_)">
				<use xlink:href="#SVGID_24_"  overflow="visible"/>
			</clipPath>
			<clipPath id="SVGID_66_" clip-path="url(#SVGID_65_)">
				<use xlink:href="#SVGID_25_"  overflow="visible"/>
			</clipPath>
			<clipPath id="SVGID_67_" clip-path="url(#SVGID_66_)">
				<use xlink:href="#SVGID_26_"  overflow="visible"/>
			</clipPath>
			<clipPath id="SVGID_68_" clip-path="url(#SVGID_67_)">
				<use xlink:href="#SVGID_27_"  overflow="visible"/>
			</clipPath>
			<clipPath id="SVGID_69_" clip-path="url(#SVGID_68_)">
				<use xlink:href="#SVGID_28_"  overflow="visible"/>
			</clipPath>
			<clipPath id="SVGID_70_" clip-path="url(#SVGID_69_)">
				<use xlink:href="#SVGID_29_"  overflow="visible"/>
			</clipPath>
			<clipPath id="SVGID_71_" clip-path="url(#SVGID_70_)">
				<use xlink:href="#SVGID_30_"  overflow="visible"/>
			</clipPath>
			<clipPath id="SVGID_72_" clip-path="url(#SVGID_71_)">
				<use xlink:href="#SVGID_31_"  overflow="visible"/>
			</clipPath>
			<clipPath id="SVGID_73_" clip-path="url(#SVGID_72_)">
				<use xlink:href="#SVGID_32_"  overflow="visible"/>
			</clipPath>
			<clipPath id="SVGID_74_" clip-path="url(#SVGID_73_)">
				<use xlink:href="#SVGID_33_"  overflow="visible"/>
			</clipPath>
			<clipPath id="SVGID_75_" clip-path="url(#SVGID_74_)">
				<use xlink:href="#SVGID_34_"  overflow="visible"/>
			</clipPath>
			<clipPath id="SVGID_76_" clip-path="url(#SVGID_75_)">
				<use xlink:href="#SVGID_35_"  overflow="visible"/>
			</clipPath>
			<clipPath id="SVGID_77_" clip-path="url(#SVGID_76_)">
				<use xlink:href="#SVGID_36_"  overflow="visible"/>
			</clipPath>
			<clipPath id="SVGID_78_" clip-path="url(#SVGID_77_)">
				<use xlink:href="#SVGID_37_"  overflow="visible"/>
			</clipPath>
			<clipPath id="SVGID_79_" clip-path="url(#SVGID_78_)">
				<use xlink:href="#SVGID_38_"  overflow="visible"/>
			</clipPath>
			<clipPath id="SVGID_80_" clip-path="url(#SVGID_79_)">
				<use xlink:href="#SVGID_39_"  overflow="visible"/>
			</clipPath>
			<clipPath id="SVGID_81_" clip-path="url(#SVGID_80_)">
				<use xlink:href="#SVGID_40_"  overflow="visible"/>
			</clipPath>
			<clipPath id="SVGID_82_" clip-path="url(#SVGID_81_)">
				<use xlink:href="#SVGID_41_"  overflow="visible"/>
			</clipPath>
			<clipPath id="SVGID_83_" clip-path="url(#SVGID_82_)">
				<use xlink:href="#SVGID_42_"  overflow="visible"/>
			</clipPath>
			<clipPath id="SVGID_84_" clip-path="url(#SVGID_83_)">
				<use xlink:href="#SVGID_43_"  overflow="visible"/>
			</clipPath>
			<path clip-path="url(#SVGID_84_)" fill="#FFFFFF" d="M54.522,463.716c0,0-56.28,6.722-30.658-39.178
				c0,0,13.277-10.666,14.828,4.209c0,0-14.002,22.319,15.171,22.644"/>
			<path clip-path="url(#SVGID_84_)" fill="none" stroke="#000000" stroke-miterlimit="10" d="M54.522,463.716
				c0,0-56.28,6.722-30.658-39.178c0,0,13.277-10.666,14.828,4.209c0,0-14.002,22.319,15.171,22.644"/>
			<path clip-path="url(#SVGID_84_)" fill="#FFFFFF" d="M127.339,366.068c0,0,17.144-9.135,20.578-4.959
				c-0.662-4.694,3.042,16.09,0,20.095"/>
			<path clip-path="url(#SVGID_84_)" fill="none" stroke="#000000" stroke-miterlimit="10" d="M127.339,366.068
				c0,0,17.144-9.135,20.578-4.959c-0.662-4.694,3.042,16.09,0,20.095"/>
			<path clip-path="url(#SVGID_84_)" fill="#FFFFFF" d="M135.039,426.299l2.464,38.87c6.376,5.599,15.814,3.991,17.612,1.939
				c0,0-0.355-6.265-5.989-4.871l1.056-35.938"/>
			<path clip-path="url(#SVGID_84_)" fill="none" stroke="#000000" stroke-miterlimit="10" d="M135.039,426.299l2.464,38.87
				c6.376,5.599,15.814,3.991,17.612,1.939c0,0-0.355-6.265-5.989-4.871l1.056-35.938"/>
			<path clip-path="url(#SVGID_84_)" fill="#FF8383" d="M160.571,459.444l-5.547,10.272c0,0-0.765,2.589,2.636,3.284
				c0,0,19.202,5.979,36.9,0c0,0,3.897-1.328,1.942-4.175l-5.826-9.383C190.676,459.444,171.251,464.676,160.571,459.444"/>
			<path clip-path="url(#SVGID_84_)" fill="none" stroke="#000000" stroke-miterlimit="10" d="M160.571,459.444l-5.547,10.272
				c0,0-0.765,2.589,2.636,3.284c0,0,19.202,5.979,36.9,0c0,0,3.897-1.328,1.942-4.175l-5.826-9.383
				C190.676,459.444,171.251,464.676,160.571,459.444z"/>
			<path clip-path="url(#SVGID_84_)" fill="#9E4B00" d="M161.343,458.782c0,0-1.577-5.231,2.754-5.231c0,0,1.207-8.002,6.504-5.22
				c0,0,6.478-4.653,9.233-0.587c0,0,4.755-1.668,4.424,3.512c0,0,4.738-0.496,2.772,3.132c0,0,6.421,1.27,2.832,4.396
				C189.863,458.782,163.313,462.97,161.343,458.782"/>
			<path clip-path="url(#SVGID_84_)" fill="none" stroke="#000000" stroke-miterlimit="10" d="M161.343,458.782
				c0,0-1.577-5.231,2.754-5.231c0,0,1.207-8.002,6.504-5.22c0,0,6.478-4.653,9.233-0.587c0,0,4.755-1.668,4.424,3.512
				c0,0,4.738-0.496,2.772,3.132c0,0,6.421,1.27,2.832,4.396C189.863,458.782,163.313,462.97,161.343,458.782z"/>
			<path clip-path="url(#SVGID_84_)" fill="#9E4B00" d="M169.641,455.491c0,0,0.794-5.345,4.404-4.734"/>
			<path clip-path="url(#SVGID_84_)" fill="none" stroke="#000000" stroke-miterlimit="10" d="M169.641,455.491
				c0,0,0.794-5.345,4.404-4.734"/>
			<path clip-path="url(#SVGID_84_)" fill="#9E4B00" d="M176.687,451.279c0,0,4.839-3.515,4.227,2.523"/>
			<path clip-path="url(#SVGID_84_)" fill="none" stroke="#000000" stroke-miterlimit="10" d="M176.687,451.279
				c0,0,4.839-3.515,4.227,2.523"/>
			<path clip-path="url(#SVGID_84_)" fill="#9E4B00" d="M172.635,456.847c0,0,2.906-6.19,6.868-1.354"/>
			<path clip-path="url(#SVGID_84_)" fill="none" stroke="#000000" stroke-miterlimit="10" d="M172.635,456.847
				c0,0,2.906-6.19,6.868-1.354"/>
			<path clip-path="url(#SVGID_84_)" fill="#FFFFFF" d="M89.634,370.031c-1.849,1.044-85.057,50.722-30.278,95.773
				c19.3,15.872,121.381,13.828,87.306-49.063"/>
			<path clip-path="url(#SVGID_84_)" fill="none" stroke="#000000" stroke-miterlimit="10" d="M89.634,370.031
				c-1.849,1.044-85.057,50.722-30.278,95.773c19.3,15.872,121.381,13.828,87.306-49.063"/>
			<path clip-path="url(#SVGID_84_)" fill="#FFFFFF" d="M95.515,458.586l6.69,14.227c0,0,10.921,8.579,17.611,1.736
				c0,0-0.354-5.604-5.988-4.356l-5.283-30.275"/>
			<path clip-path="url(#SVGID_84_)" fill="none" stroke="#000000" stroke-miterlimit="10" d="M95.515,458.586l6.69,14.227
				c0,0,10.921,8.579,17.611,1.736c0,0-0.354-5.604-5.988-4.356l-5.283-30.275"/>
			<path clip-path="url(#SVGID_84_)" fill="#FFFFFF" d="M79.365,409.02c21.635,19.05,56.298,8.351,56.298,8.351
				c9.645,3.394,19.674-10.829,19.674-10.829c6.34-13.962-6.466-26.488-6.466-26.488s-3.793-16.283-26.024-18.006
				c0,0-21.375-4.54-33.214,6.325"/>
			<path clip-path="url(#SVGID_84_)" fill="none" stroke="#000000" stroke-miterlimit="10" d="M79.365,409.02
				c21.635,19.05,56.298,8.351,56.298,8.351c9.645,3.394,19.674-10.829,19.674-10.829c6.34-13.962-6.466-26.488-6.466-26.488
				s-3.793-16.283-26.024-18.006c0,0-21.375-4.54-33.214,6.325"/>
			<path clip-path="url(#SVGID_84_)" fill="#FFFFFF" d="M94.19,370.243c0,0-17.144-9.134-20.578-4.958
				c0.661-4.695-3.041,16.092,0,20.094"/>
			<path clip-path="url(#SVGID_84_)" fill="none" stroke="#000000" stroke-miterlimit="10" d="M94.19,370.243
				c0,0-17.144-9.134-20.578-4.958c0.661-4.695-3.041,16.092,0,20.094"/>
			<path clip-path="url(#SVGID_84_)" fill="#FFFFFF" d="M92.077,372.217c0,0-11.667-6.283-14.416-2.943
				c0.532-3.756-3.405,11.125-0.973,14.328"/>
			<path clip-path="url(#SVGID_84_)" fill="none" stroke="#000000" stroke-miterlimit="10" d="M92.077,372.217
				c0,0-11.667-6.283-14.416-2.943c0.532-3.756-3.405,11.125-0.973,14.328"/>
			<path clip-path="url(#SVGID_84_)" fill="none" stroke="#000000" stroke-miterlimit="10" d="M138.174,401.607
				c0,0,2.405,6.182-3.493,6.75c0,0-3.492,1.263-6.006-5.377c-2.515-6.637,0.108,5.267-3.388,7.099
				c-3.493,1.831-10.267,0.455-13.541-1.722"/>
			<path clip-path="url(#SVGID_84_)" d="M130.383,396.659c-0.78-1.64-6.661-1.179-7.316,0.512c-0.565,1.47,4.442,4.513,4.442,4.513
				S131.004,397.964,130.383,396.659"/>
			<path clip-path="url(#SVGID_84_)" fill="none" stroke="#000000" stroke-miterlimit="10" d="M130.383,396.659
				c-0.78-1.64-6.661-1.179-7.316,0.512c-0.565,1.47,4.442,4.513,4.442,4.513S131.004,397.964,130.383,396.659z"/>
			<path clip-path="url(#SVGID_84_)" fill="none" stroke="#000000" stroke-miterlimit="10" d="M96.336,390.908
				c0,0,14.527-3.372,17.434,5.751"/>
			<path clip-path="url(#SVGID_84_)" d="M110.865,391.952c4.089,0,4.089-6.263,0-6.263
				C106.776,385.689,106.776,391.952,110.865,391.952"/>
			<path clip-path="url(#SVGID_84_)" d="M133.846,390.646c4.089,0,4.089-6.264,0-6.264S129.757,390.646,133.846,390.646"/>
			<path clip-path="url(#SVGID_84_)" fill="none" stroke="#000000" stroke-miterlimit="10" d="M149.695,388.82
				c0,0-14.527-3.372-17.434,5.75"/>
			<path clip-path="url(#SVGID_84_)" fill="none" stroke="#000000" stroke-miterlimit="10" d="M110.865,401.684
				c0,0-13.361-4.537-18.789,0"/>
			<path clip-path="url(#SVGID_84_)" fill="none" stroke="#000000" stroke-miterlimit="10" d="M109.779,407.352
				c0,0-10.941-2.846-13.441,5.668"/>
			<path clip-path="url(#SVGID_84_)" fill="none" stroke="#000000" stroke-miterlimit="10" d="M136.455,397.508
				c0,0,13.361-4.535,18.789,0"/>
			<path clip-path="url(#SVGID_84_)" fill="none" stroke="#000000" stroke-miterlimit="10" d="M137.54,405.264
				c0,0,10.941-2.846,13.441,5.668"/>
			<path clip-path="url(#SVGID_84_)" fill="#FFFFFF" d="M169.771,464.76v7.209l8.453-7.209c0,0,6.275,0.529,6.834,2.793
				c0.563,2.264-6.618,4.479-7.61,3.471C176.457,470.013,169.771,464.76,169.771,464.76"/>
			<path clip-path="url(#SVGID_84_)" fill="none" stroke="#FFFFFF" stroke-miterlimit="10" d="M169.771,464.76v7.209l8.453-7.209
				c0,0,6.275,0.529,6.834,2.793c0.563,2.264-6.618,4.479-7.61,3.471C176.457,470.013,169.771,464.76,169.771,464.76z"/>
			<path clip-path="url(#SVGID_84_)" fill="#FFFFFF" d="M179.896,467.718c1.363,0,1.363-2.088,0-2.088
				S178.532,467.718,179.896,467.718"/>
			<path clip-path="url(#SVGID_84_)" d="M182.009,467.804c1.363,0,1.363-2.088,0-2.088S180.646,467.804,182.009,467.804"/>
		</g>
	</g>
</g>
<path fill="#FFFFFF" d="M434.643,18.479c0,0.495-0.398,0.895-0.886,0.895H232.691c-0.487,0-0.887-0.4-0.887-0.895l0,0
	c0-0.494,0.399-0.895,0.887-0.895h201.065C434.243,17.583,434.643,17.984,434.643,18.479L434.643,18.479z"/>
<text transform="matrix(0.8725 0 0 1 297.7834 100.4297)" font-family="'SDSamliphopangcheTTFBasic'" font-size="24.0014">입양조건</text>
<text transform="matrix(0.8725 0 0 1 250.1843 133.0068)" font-family="'SDSamliphopangcheTTFBasic'" font-size="24.0014">18세 이상 성인이신분</text>
<text transform="matrix(0.8725 0 0 1 254.0159 165.584)" font-family="'SDSamliphopangcheTTFBasic'" font-size="24.0014">반려동물을 진심으로</text>
<text transform="matrix(0.8725 0 0 1 246.7917 198.1602)" font-family="'SDSamliphopangcheTTFBasic'" font-size="24.0014"> </text>
<text transform="matrix(0.8725 0 0 1 251.6077 198.1602)" fill="#EC008C" font-family="'SDSamliphopangcheTTFBasic'" font-size="24.0014">사랑</text>
<text transform="matrix(0.8725 0 0 1 284.6956 198.1602)" font-family="'SDSamliphopangcheTTFBasic'" font-size="24.0014">해주실 수 있는 분</text>
<text transform="matrix(0.8725 0 0 1 211.2961 230.7373)" font-family="'SDSamliphopangcheTTFBasic'" font-size="24.0014">동물들이 충분히 적응 할 수 있는</text>
<text transform="matrix(0.8725 0 0 1 236.1116 263.3145)" font-family="'SDSamliphopangcheTTFBasic'" font-size="24.0014"> 환경 제공이 가능 하신 분</text>
<text transform="matrix(0.8725 0 0 1 249.2 295.8906)" font-family="'SDSamliphopangcheTTFBasic'" font-size="24.0014">다른 반려동물로 인해 </text>
<text transform="matrix(0.8725 0 0 1 221.9763 328.4678)" fill="#ED1C24" font-family="'SDSamliphopangcheTTFBasic'" font-size="24.0014">파양 가능성</text>
<text transform="matrix(0.8725 0 0 1 309.51 328.4678)" font-family="'SDSamliphopangcheTTFBasic'" font-size="24.0014">이 있지 않은 가정</text>
<path fill="#FFFFFF" stroke="#231F20" stroke-miterlimit="10" d="M114.732,310.618c0,15.594-12.643,28.237-28.236,28.237
	l8.235,15.636l-24.708-15.636h-9.412H45.904c-15.594,0-28.236-12.645-28.236-28.237v-7.062c0-15.594,12.643-28.238,28.236-28.238
	h40.592c15.594,0,28.236,12.646,28.236,28.238V310.618z"/>
<text transform="matrix(1 0 0 1 39.9856 303.9043)" font-family="'SDSamliphopangcheOutline-KSCpc-EUC-H'" font-size="14.1187">이정도는 </text>
<text transform="matrix(1 0 0 1 39.9856 320.8477)" font-family="'SDSamliphopangcheOutline-KSCpc-EUC-H'" font-size="14.1187">해야된다냥</text>
<g>
	
		<ellipse transform="matrix(0.9947 0.1033 -0.1033 0.9947 46.6494 -24.349)" fill="#EF67EF" stroke="#FF61E1" stroke-miterlimit="10" cx="258.419" cy="438.235" rx="4.807" ry="5.635"/>
	
		<ellipse transform="matrix(0.9946 0.1035 -0.1035 0.9946 44.867 -23.4013)" fill="#EF67EF" stroke="#FF61E1" stroke-miterlimit="10" cx="247.895" cy="420.574" rx="5.906" ry="6.183"/>
	
		<ellipse transform="matrix(0.9946 0.1034 -0.1034 0.9946 44.3117 -21.3928)" fill="#EF67EF" stroke="#FF61E1" stroke-miterlimit="10" cx="228.476" cy="416.662" rx="5.841" ry="6.135"/>
	
		<ellipse transform="matrix(0.9946 0.1037 -0.1037 0.9946 45.7091 -19.8885)" fill="#EF67EF" stroke="#FF61E1" stroke-miterlimit="10" cx="214.073" cy="429.527" rx="5.079" ry="5.633"/>
	<circle fill="#EF67EF" cx="232.39" cy="447.527" r="18.268"/>
</g>
<g>
	
		<ellipse transform="matrix(0.8256 -0.5642 0.5642 0.8256 -170.7227 332.2905)" fill="#EF67EF" stroke="#FF61E1" stroke-miterlimit="10" cx="452.217" cy="442.34" rx="1.696" ry="1.988"/>
	
		<ellipse transform="matrix(0.8258 -0.564 0.564 0.8258 -170.5618 327.8527)" fill="#EF67EF" stroke="#FF61E1" stroke-miterlimit="10" cx="445.357" cy="439.985" rx="2.084" ry="2.182"/>
	
		<ellipse transform="matrix(0.8258 -0.564 0.564 0.8258 -173.5232 324.9451)" fill="#EF67EF" stroke="#FF61E1" stroke-miterlimit="10" cx="439.236" cy="443.359" rx="2.061" ry="2.165"/>
	
		<ellipse transform="matrix(0.8259 -0.5638 0.5638 0.8259 -177.4753 325.501)" fill="#EF67EF" stroke="#FF61E1" stroke-miterlimit="10" cx="438.293" cy="450.107" rx="1.793" ry="1.987"/>
	<circle fill="#EF67EF" cx="447.328" cy="450.776" r="6.445"/>
</g>
</svg>
