<?xml version="1.0" encoding="utf-8"?>
<!-- Generator: Adobe Illustrator 16.0.0, SVG Export Plug-In . SVG Version: 6.00 Build 0)  -->
<!DOCTYPE svg PUBLIC "-//W3C//DTD SVG 1.1//EN" "http://www.w3.org/Graphics/SVG/1.1/DTD/svg11.dtd">
<svg version="1.1" id="Layer_1" xmlns="http://www.w3.org/2000/svg" xmlns:xlink="http://www.w3.org/1999/xlink" x="0px" y="0px"
	 width="100px" height="100px" viewBox="0 0 100 100" enable-background="new 0 0 100 100" xml:space="preserve">
<path fill="#FFFFFF" stroke="#000000" stroke-miterlimit="10" d="M29.764,81.875c0,0-26.633,3.219-14.508-18.766
	c0,0,6.283-5.109,7.017,2.016c0,0-6.626,10.691,7.179,10.846"/>
<path fill="#FFFFFF" stroke="#000000" stroke-miterlimit="10" d="M64.222,35.102c0,0,8.113-4.375,9.738-2.375
	c-0.313-2.249,1.438,7.707,0,9.625"/>
<path fill="#FFFFFF" stroke="#000000" stroke-miterlimit="10" d="M67.865,63.952l1.166,18.619c3.017,2.682,7.484,1.912,8.334,0.929
	c0,0-0.168-3-2.834-2.333l0.5-17.215"/>
<path fill="none" stroke="#000000" stroke-miterlimit="10" d="M56.198,33"/>
<path fill="#FF8383" stroke="#000000" stroke-miterlimit="10" d="M79.947,79.829l-2.625,4.921c0,0-0.362,1.24,1.247,1.573
	c0,0,9.087,2.864,17.462,0c0,0,1.844-0.636,0.919-2l-2.757-4.494C94.193,79.829,85.001,82.335,79.947,79.829z"/>
<path fill="#9E4B00" stroke="#000000" stroke-miterlimit="10" d="M80.313,79.512c0,0-0.746-2.506,1.303-2.506
	c0,0,0.571-3.833,3.078-2.5c0,0,3.065-2.229,4.369-0.281c0,0,2.25-0.799,2.094,1.682c0,0,2.242-0.237,1.313,1.5
	c0,0,3.038,0.608,1.34,2.105C93.809,79.512,81.244,81.518,80.313,79.512z"/>
<path fill="#9E4B00" stroke="#000000" stroke-miterlimit="10" d="M84.239,77.936c0,0,0.376-2.56,2.084-2.268"/>
<path fill="#9E4B00" stroke="#000000" stroke-miterlimit="10" d="M87.573,75.918c0,0,2.29-1.683,2,1.209"/>
<path fill="#9E4B00" stroke="#000000" stroke-miterlimit="10" d="M85.656,78.585c0,0,1.375-2.966,3.25-0.649"/>
<path fill="none" stroke="#000000" stroke-miterlimit="10" d="M56.198,36.5"/>
<path fill="#FFFFFF" stroke="#000000" stroke-miterlimit="10" d="M46.379,37c-0.875,0.5-40.25,24.296-14.328,45.876
	c9.133,7.603,57.439,6.624,41.314-23.501"/>
<path fill="#FFFFFF" stroke="#000000" stroke-miterlimit="10" d="M49.162,79.418l3.166,6.814c0,0,5.168,4.109,8.334,0.831
	c0,0-0.168-2.684-2.834-2.087l-2.5-14.502"/>
<path fill="#FFFFFF" stroke="#000000" stroke-miterlimit="10" d="M41.52,55.675c10.238,9.125,26.641,4,26.641,4
	c4.564,1.625,9.311-5.188,9.311-5.188c3-6.688-3.061-12.688-3.061-12.688s-1.795-7.8-12.314-8.625c0,0-10.115-2.175-15.717,3.03"/>
<g>
	<path fill="#FFFFFF" stroke="#000000" stroke-miterlimit="10" d="M48.535,37.102c0,0-8.113-4.375-9.738-2.375
		c0.313-2.249-1.438,7.708,0,9.625"/>
	<path fill="#FFFFFF" stroke="#000000" stroke-miterlimit="10" d="M47.535,38.047c0,0-5.521-3.01-6.822-1.41
		c0.252-1.799-1.61,5.329-0.46,6.863"/>
</g>
<path fill="none" stroke="#000000" stroke-miterlimit="10" d="M69.349,52.125c0,0,1.138,2.961-1.653,3.234
	c0,0-1.651,0.604-2.842-2.576c-1.189-3.18,0.051,2.521-1.603,3.399c-1.653,0.877-4.858,0.219-6.408-0.823"/>
<path stroke="#000000" stroke-miterlimit="10" d="M65.662,49.755C65.293,48.97,62.51,49.189,62.2,50
	c-0.269,0.704,2.102,2.161,2.102,2.161S65.956,50.38,65.662,49.755z"/>
<path fill="none" stroke="#000000" stroke-miterlimit="10" d="M49.551,47c0,0,6.875-1.615,8.25,2.755"/>
<g>
	<g>
		<path d="M56.426,47.5c1.935,0,1.935-3,0-3S54.491,47.5,56.426,47.5L56.426,47.5z"/>
	</g>
</g>
<g>
	<g>
		<path d="M67.301,46.875c1.935,0,1.935-3,0-3S65.366,46.875,67.301,46.875L67.301,46.875z"/>
	</g>
</g>
<path fill="none" stroke="#000000" stroke-miterlimit="10" d="M74.801,46c0,0-6.875-1.615-8.25,2.755"/>
<path fill="none" stroke="#000000" stroke-miterlimit="10" d="M56.426,52.161c0,0-6.323-2.173-8.891,0"/>
<path fill="none" stroke="#000000" stroke-miterlimit="10" d="M55.912,54.876c0,0-5.178-1.363-6.361,2.715"/>
<path fill="none" stroke="#000000" stroke-miterlimit="10" d="M68.535,50.161c0,0,6.323-2.173,8.891,0"/>
<path fill="none" stroke="#000000" stroke-miterlimit="10" d="M69.049,53.876c0,0,5.178-1.363,6.361,2.715"/>
<path fill="#FFFFFF" stroke="#FFFFFF" stroke-miterlimit="10" d="M84.301,82.375v3.453l4-3.453c0,0,2.969,0.254,3.234,1.338
	s-3.133,2.146-3.602,1.662S84.301,82.375,84.301,82.375z"/>
<g>
	<g>
		<path fill="#FFFFFF" d="M89.092,83.792c0.645,0,0.645-1,0-1S88.447,83.792,89.092,83.792L89.092,83.792z"/>
	</g>
</g>
<g>
	<g>
		<path d="M90.092,83.833c0.645,0,0.645-1,0-1S89.447,83.833,90.092,83.833L90.092,83.833z"/>
	</g>
</g>
</svg>
