<?xml version="1.0" encoding="utf-8"?>
<!-- Generator: Adobe Illustrator 16.0.0, SVG Export Plug-In . SVG Version: 6.00 Build 0)  -->
<!DOCTYPE svg PUBLIC "-//W3C//DTD SVG 1.1//EN" "http://www.w3.org/Graphics/SVG/1.1/DTD/svg11.dtd">
<svg version="1.1" id="Layer_1" xmlns="http://www.w3.org/2000/svg" xmlns:xlink="http://www.w3.org/1999/xlink" x="0px" y="0px"
	 width="100px" height="100px" viewBox="0 0 100 100" enable-background="new 0 0 100 100" xml:space="preserve">
<path fill="#FFFFFF" stroke="#000000" stroke-miterlimit="10" d="M49.436,64.952L45.27,82.571c0,0-5.168,4.595-8.334,0.929
	c0,0,0.168-3,2.834-2.333l2.5-16.215"/>
<g>
	<path fill="#FFFFFF" d="M80.436,69.167c7.667-1.167,4.688,7.769,0.5,7.5"/>
	<g>
		<path d="M80.436,69.667c2.129-0.283,4.599,0.218,4.196,2.885c-0.269,1.783-1.774,3.668-3.696,3.615c-0.646-0.018-0.644,0.982,0,1
			c2.48,0.068,4.347-2.27,4.692-4.559c0.488-3.237-2.497-4.301-5.192-3.941C79.806,68.751,79.798,69.752,80.436,69.667
			L80.436,69.667z"/>
	</g>
</g>
<path fill="#FFFFFF" stroke="#000000" stroke-miterlimit="10" d="M46.603,57.667c-35.833,20.167-23.333-11-23.333-11
	C35.104,10,55.936,33.833,56.436,33.833l13.5,16.5c0,0,20.168,23,5.5,33.167c0,0-30.667,7.168-31.167-5.166
	c0,0-4.666-12.501-0.833-18.334"/>
<path fill="#FFFFFF" stroke="#000000" stroke-miterlimit="10" d="M52.27,35.167L67.103,41c0,0,2.999,2.5-2.833,10.334
	c0,0-4.334,5.833-14.5-10.667"/>
<path fill="none" stroke="#000000" stroke-miterlimit="10" d="M40.103,36"/>
<g>
	<g>
		<path d="M39.436,47c1.935,0,1.935-3,0-3S37.501,47,39.436,47L39.436,47z"/>
	</g>
</g>
<g>
	<g>
		<path d="M22.168,59.113c0.084-0.026,0.17-0.048,0.257-0.065c-0.204,0.021-0.226,0.027-0.064,0.019
			c0.172,0.009,0.131,0.001-0.124-0.021c0.229,0.048-0.282-0.163-0.329-0.205c-0.151-0.217-0.187-0.262-0.107-0.132
			c-0.095-0.25-0.12-0.301-0.077-0.15c-0.027-0.271-0.037-0.326-0.029-0.163c0.011,0.308,0.078-0.373,0.012-0.056
			c-0.082,0.398,0.099-0.147-0.014,0.088c-0.03,0.06-0.063,0.118-0.099,0.176c-0.18,0.302,0.217-0.241-0.019,0.029
			c-0.049,0.054-0.1,0.104-0.153,0.152c-0.263,0.252,0.263-0.169-0.05,0.029c-0.065,0.038-0.132,0.074-0.2,0.105
			c0.357-0.177-0.076,0-0.129,0.016c-0.098,0.027-0.197,0.05-0.297,0.069c0.172-0.017,0.175-0.019,0.008-0.005
			c-0.076,0.003-0.151,0.002-0.226-0.003c0.428,0.019-0.104-0.099,0.311,0.089c-0.134-0.081-0.097-0.047,0.113,0.101
			c-0.104-0.112-0.071-0.069,0.099,0.129c0.093,0.249,0.116,0.299,0.069,0.149c0.11,0.371,0.021,0.252,0.022,0.078
			c0.001-0.239-0.089,0.361,0.025-0.049c0.053-0.151,0.038-0.125-0.045,0.076c0.042-0.098,0.095-0.191,0.148-0.283
			c0.038-0.064,0.078-0.127,0.121-0.188c-0.204,0.304,0.005-0.002,0.056-0.058c0.064-0.072,0.517-0.443,0.245-0.246
			c0.66-0.48,0.983-1.293,0.539-2.052c-0.382-0.652-1.39-1.021-2.052-0.538c-1.084,0.789-2.215,2.13-2.021,3.581
			c0.267,1.996,2.107,2.504,3.844,1.994c1.516-0.445,2.549-1.745,2.692-3.303c0.075-0.813-0.375-1.588-1.021-2.041
			c-0.664-0.465-1.558-0.426-2.301-0.216C19.512,56.744,20.303,59.64,22.168,59.113L22.168,59.113z"/>
	</g>
</g>
<path fill="#FFFFFF" stroke="#000000" stroke-miterlimit="10" d="M56.436,78.005l-3.166,6.814c0,0-5.168,4.109-8.334,0.831
	c0,0,0.168-2.684,2.834-2.087l2.5-14.502"/>
<path fill="#FF8383" stroke="#000000" stroke-miterlimit="10" d="M27.354,76.829l2.625,4.921c0,0,0.362,1.24-1.247,1.573
	c0,0-9.087,2.864-17.462,0c0,0-1.844-0.636-0.919-2l2.757-4.494C13.107,76.829,22.3,79.335,27.354,76.829z"/>
<path fill="#9E4B00" stroke="#000000" stroke-miterlimit="10" d="M26.988,76.512c0,0,0.746-2.506-1.303-2.506
	c0,0-0.571-3.833-3.078-2.5c0,0-3.065-2.229-4.369-0.281c0,0-2.25-0.799-2.094,1.682c0,0-2.242-0.237-1.313,1.5
	c0,0-3.038,0.608-1.34,2.105C13.492,76.512,26.057,78.518,26.988,76.512z"/>
<g>
	<path fill="#FFFFFF" stroke="#FFFFFF" stroke-miterlimit="10" d="M16.676,81.082l3.359,0.387l3.359-0.387
		c0.344,0.125,0.438,0.75,0.438,0.75c0,2.438-2.156-0.156-2.156-0.156h-3.281c0,0-2.156,2.594-2.156,0.156
		C16.238,81.832,16.332,81.207,16.676,81.082z"/>
	<path fill="#FFFFFF" stroke="#FFFFFF" stroke-miterlimit="10" d="M23.395,80.875l-3.359-0.387l-3.359,0.387
		c-0.344-0.125-0.438-0.75-0.438-0.75c0-2.438,2.156,0.156,2.156,0.156h3.281c0,0,2.156-2.594,2.156-0.156
		C23.832,80.125,23.738,80.75,23.395,80.875z"/>
</g>
<path fill="#9E4B00" stroke="#000000" stroke-miterlimit="10" d="M24.062,74.936c0,0-0.376-2.56-2.084-2.268"/>
<path fill="#9E4B00" stroke="#000000" stroke-miterlimit="10" d="M19.728,72.918c0,0-2.29-1.683-2,1.209"/>
<path fill="#9E4B00" stroke="#000000" stroke-miterlimit="10" d="M21.645,75.585c0,0-1.375-2.966-3.25-0.649"/>
</svg>
