<?xml version="1.0" encoding="utf-8"?>
<!-- Generator: Adobe Illustrator 16.0.0, SVG Export Plug-In . SVG Version: 6.00 Build 0)  -->
<!DOCTYPE svg PUBLIC "-//W3C//DTD SVG 1.1//EN" "http://www.w3.org/Graphics/SVG/1.1/DTD/svg11.dtd">
<svg version="1.1" id="Layer_1" xmlns="http://www.w3.org/2000/svg" xmlns:xlink="http://www.w3.org/1999/xlink" x="0px" y="0px"
	 width="100px" height="100px" viewBox="0 0 100 100" enable-background="new 0 0 100 100" xml:space="preserve">
<path fill="#FFFFFF" stroke="#000000" stroke-miterlimit="10" d="M43.833,57.952L48,75.571c0,0,5.168,4.595,8.334,0.929
	c0,0-0.168-3-2.834-2.333L51,57.952"/>
<g>
	<path fill="#FFFFFF" d="M12.833,62.167c-7.667-1.167-4.687,7.769-0.5,7.5"/>
	<g>
		<path d="M12.833,61.667c-2.684-0.357-5.533,0.635-5.209,3.809c0.238,2.34,2.223,4.76,4.709,4.691c0.644-0.018,0.645-1.018,0-1
			c-1.908,0.053-3.237-1.706-3.654-3.406c-0.678-2.764,1.999-3.381,4.154-3.094C13.471,62.752,13.463,61.751,12.833,61.667
			L12.833,61.667z"/>
	</g>
</g>
<path fill="#FFFFFF" stroke="#000000" stroke-miterlimit="10" d="M46.667,50.667C82.5,70.834,70,39.667,70,39.667
	C58.166,3,37.333,26.833,36.833,26.833l-13.5,16.5c0,0-20.167,23-5.5,33.167c0,0,30.667,7.168,31.167-5.166
	c0,0,4.666-12.501,0.833-18.334"/>
<path fill="#FFFFFF" stroke="#000000" stroke-miterlimit="10" d="M41,28.167L26.167,34c0,0-3,2.5,2.833,10.333
	c0,0,4.333,5.833,14.5-10.667"/>
<path fill="none" stroke="#000000" stroke-miterlimit="10" d="M53.167,29"/>
<g>
	<g>
		<path d="M53.834,40c1.935,0,1.935-3,0-3S51.899,40,53.834,40L53.834,40z"/>
	</g>
</g>
<g>
	<g>
		<path d="M71.898,49.221c-0.743-0.209-1.637-0.249-2.301,0.216c-0.68,0.475-1.047,1.208-1.021,2.041
			c0.047,1.557,1.248,2.864,2.692,3.303c1.733,0.526,3.578-0.01,3.843-1.994c0.194-1.451-0.937-2.792-2.021-3.582
			c-0.662-0.482-1.67-0.114-2.052,0.539c-0.445,0.759-0.122,1.571,0.538,2.052c-0.283-0.206,0.112,0.11,0.163,0.159
			c0.056,0.057,0.109,0.115,0.161,0.175c0.258,0.289-0.17-0.25,0.039,0.063c0.08,0.12,0.145,0.249,0.206,0.378
			c-0.229-0.484,0.052,0.512-0.025-0.113c0.02,0.156-0.07,0.474,0.028,0.008c-0.047,0.149-0.024,0.1,0.068-0.149
			c0.05-0.061,0.101-0.122,0.15-0.183c-0.106,0.106-0.063,0.078,0.132-0.087c-0.134,0.073-0.091,0.058,0.13-0.048
			c-0.305,0.107,0.364-0.013,0.001,0.004c-0.08,0-0.16-0.003-0.239-0.011c0.356,0.025-0.122-0.045-0.166-0.056
			c-0.092-0.026-0.182-0.054-0.272-0.081c0.177,0.083,0.19,0.088,0.041,0.015c-0.066-0.035-0.13-0.073-0.192-0.115
			c0.303,0.192,0.034,0.021-0.034-0.043c-0.051-0.051-0.099-0.104-0.144-0.158c0.125,0.167,0.142,0.184,0.051,0.051
			c-0.035-0.058-0.068-0.116-0.1-0.176c-0.162-0.303,0.109,0.315,0.01,0.001c-0.126-0.399-0.004,0.203-0.012-0.033
			c0.009-0.163-0.001-0.108-0.028,0.163c0.05-0.277-0.179,0.324-0.04,0.089c-0.079,0.144-0.19,0.257-0.333,0.339
			c-0.073,0.027-0.146,0.056-0.219,0.084c0.15-0.042,0.104-0.041-0.143,0c0.067-0.005,0.135-0.005,0.203,0
			c-0.389-0.014-0.007,0.018,0.088,0.044C72.967,52.64,73.758,49.745,71.898,49.221L71.898,49.221z"/>
	</g>
</g>
<path fill="#FFFFFF" stroke="#000000" stroke-miterlimit="10" d="M36.833,71.005L40,77.819c0,0,5.167,4.109,8.333,0.831
	c0,0-0.168-2.684-2.834-2.087L43,62.062"/>
<path fill="#FF8383" stroke="#000000" stroke-miterlimit="10" d="M65.916,69.829l-2.625,4.921c0,0-0.362,1.24,1.247,1.573
	c0,0,9.087,2.864,17.462,0c0,0,1.844-0.636,0.919-2l-2.757-4.494C80.162,69.829,70.97,72.335,65.916,69.829z"/>
<path fill="#9E4B00" stroke="#000000" stroke-miterlimit="10" d="M66.281,69.512c0,0-0.746-2.506,1.303-2.506
	c0,0,0.571-3.833,3.078-2.5c0,0,3.065-2.229,4.369-0.281c0,0,2.25-0.799,2.094,1.682c0,0,2.242-0.237,1.313,1.5
	c0,0,3.038,0.608,1.34,2.105C79.777,69.512,67.213,71.518,66.281,69.512z"/>
<g>
	<path fill="#FFFFFF" stroke="#FFFFFF" stroke-miterlimit="10" d="M76.594,74.082l-3.359,0.387l-3.359-0.387
		c-0.344,0.125-0.438,0.75-0.438,0.75c0,2.438,2.156-0.156,2.156-0.156h3.281c0,0,2.156,2.594,2.156,0.156
		C77.031,74.832,76.938,74.207,76.594,74.082z"/>
	<path fill="#FFFFFF" stroke="#FFFFFF" stroke-miterlimit="10" d="M69.875,73.875l3.359-0.387l3.359,0.387
		c0.344-0.125,0.438-0.75,0.438-0.75c0-2.438-2.156,0.156-2.156,0.156h-3.281c0,0-2.156-2.594-2.156-0.156
		C69.438,73.125,69.531,73.75,69.875,73.875z"/>
</g>
<path fill="#9E4B00" stroke="#000000" stroke-miterlimit="10" d="M69.208,67.936c0,0,0.376-2.56,2.084-2.268"/>
<path fill="#9E4B00" stroke="#000000" stroke-miterlimit="10" d="M73.542,65.918c0,0,2.29-1.683,2,1.209"/>
<path fill="#9E4B00" stroke="#000000" stroke-miterlimit="10" d="M71.625,68.585c0,0,1.375-2.966,3.25-0.649"/>
</svg>
