<?xml version="1.0" encoding="utf-8"?>
<!-- Generator: Adobe Illustrator 16.0.0, SVG Export Plug-In . SVG Version: 6.00 Build 0)  -->
<!DOCTYPE svg PUBLIC "-//W3C//DTD SVG 1.1//EN" "http://www.w3.org/Graphics/SVG/1.1/DTD/svg11.dtd">
<svg version="1.1" id="Layer_1" xmlns="http://www.w3.org/2000/svg" xmlns:xlink="http://www.w3.org/1999/xlink" x="0px" y="0px"
	 width="250px" height="250px" viewBox="0 0 250 250" enable-background="new 0 0 250 250" xml:space="preserve">
<g>
	<g>
		<path fill="#F13C87" d="M19.108,118.464c1.416-0.332,2.866-0.309,4.313-0.31c1.944,0,1.944-3.015,0-3.015
			c-1.719,0-3.432,0.023-5.114,0.417C16.413,116,17.216,118.907,19.108,118.464L19.108,118.464z"/>
	</g>
</g>
<g>
	<g>
		<path fill="#F13C87" d="M32.335,118.67c18.977-10.33-0.77-35.511-17.783-29.151c-8.211,3.069-14.384,15.052-11.348,23.48
			c3.521,9.778,18.317,9.951,26.358,7.162c4.866-1.688,2.774-9.456-2.137-7.752c-5.179,1.796-12.144,2.325-16.4-1.753
			c-3.23-3.095,2.895-11.93,5.724-13.372c8.195-4.177,21.877,8.812,11.528,14.445C23.723,114.208,27.78,121.149,32.335,118.67
			L32.335,118.67z"/>
	</g>
</g>
<g>
	<g>
		<path fill="#F13C87" d="M48.07,127.711c3.864-15.384,4.759-31.523-0.269-46.753c-1.61-4.88-9.446-3.055-7.818,1.88
			c4.589,13.902,3.944,28.417,0.409,42.482C39.133,130.335,46.807,132.738,48.07,127.711L48.07,127.711z"/>
	</g>
</g>
<g>
	<g>
		<path fill="#F13C87" d="M107.813,84.06c1.065,6.563-1.149,14.597,3.202,20.289c4.066,5.32,12.063,4.744,18.01,4.483
			c6.002-0.264,11.396,0.523,15.03-5.095c5.064-7.832,1.134-14.392,1.187-22.647c0.023-3.87-5.977-3.868-6,0
			c-0.035,5.573,2.74,10.95,1.128,16.415c-1.921,6.51-6.946,5.134-12.501,5.378c-4.658,0.204-11.539,1.009-13.134-4.541
			c-1.446-5.032-0.296-10.706-1.135-15.877C112.98,78.653,107.199,80.276,107.813,84.06L107.813,84.06z"/>
	</g>
</g>
<g>
	<g>
		<path fill="#F13C87" d="M144.479,90.096c-10.541-4.517-21.364-0.981-32.323-0.772c-3.864,0.074-3.872,6.074,0,6
			c9.46-0.181,20.2-3.944,29.293-0.047C144.965,96.783,148.025,91.616,144.479,90.096L144.479,90.096z"/>
	</g>
</g>
<g>
	<g>
		<path fill="#F13C87" d="M107.806,117.796c13.63,1.187,28.445,2.323,41.394-3.005c3.527-1.452,1.984-7.259-1.596-5.786
			c-12.481,5.137-26.656,3.936-39.798,2.792C103.949,111.46,103.982,117.463,107.806,117.796L107.806,117.796z"/>
	</g>
</g>
<g>
	<g>
		<path fill="#F13C87" d="M124.971,118.898c1.807,3.483,2.059,7.784,0.784,11.459c-1.27,3.666,4.526,5.229,5.786,1.597
			c1.798-5.19,1.126-11.231-1.391-16.085C128.37,112.434,123.192,115.469,124.971,118.898L124.971,118.898z"/>
	</g>
</g>
<g>
	<g>
		<path fill="#F13C87" d="M155.65,88.076c8.242,0.689,16.416,0.969,24.647,0c3.795-0.447,3.838-6.452,0-6
			c-8.231,0.969-16.405,0.689-24.647,0C151.793,81.753,151.822,87.756,155.65,88.076L155.65,88.076z"/>
	</g>
</g>
<g>
	<g>
		<path fill="#F13C87" d="M177.4,94.763c-7.117-0.068-13.871-0.474-20.869,1.019c-5.189,1.107-3.682,11.584-3.4,14.984
			c1.271,15.443,17.361,13.288,28.328,10.911c3.779-0.819,2.177-6.603-1.596-5.785c-7.914,1.715-19.907,4.883-20.85-6.53
			c-0.207-2.508-0.391-5.237,0.184-7.698c0.548-2.343,0.595-0.729-1.069-0.096c0.7-0.267,1.588-0.357,2.31-0.55
			c5.301-1.421,11.543-0.307,16.963-0.255C181.271,100.8,181.268,94.8,177.4,94.763L177.4,94.763z"/>
	</g>
</g>
<g>
	<g>
		<path fill="#F13C87" d="M182.836,109.098c5.434,0.363,10.863,0.698,16.311,0.726c3.871,0.02,3.869-5.98,0-6
			c-5.447-0.027-10.877-0.363-16.311-0.726C178.972,102.84,178.996,108.841,182.836,109.098L182.836,109.098z"/>
	</g>
</g>
<g>
	<g>
		<path fill="#F13C87" d="M193.357,92.761c2.556,8.927,3.152,17.523,2.271,26.749c-0.368,3.852,5.635,3.816,6,0
			c0.933-9.747,0.212-18.924-2.485-28.344C198.079,87.453,192.289,89.033,193.357,92.761L193.357,92.761z"/>
	</g>
</g>
<g>
	<g>
		<path fill="#F13C87" d="M33.245,143.557c7.247,3.762,14.516,6.471,22.791,6.277c4.506-0.105,4.517-7.105,0-7
			c-7.054,0.164-13.08-2.115-19.257-5.322C32.778,135.436,29.238,141.477,33.245,143.557L33.245,143.557z"/>
	</g>
</g>
<g>
	<g>
		<path fill="#F13C87" d="M32.269,157.682c8.681,1.594,17.41-0.113,26.097,1.086c4.413,0.609,6.316-6.135,1.861-6.75
			c-8.672-1.197-17.497,0.493-26.097-1.086C29.718,150.122,27.834,156.867,32.269,157.682L32.269,157.682z"/>
	</g>
</g>
<g>
	<g>
		<path fill="#F13C87" d="M44.541,159.146c-14.188-1.679-16.165,19.229-6.21,25.664c7.384,4.771,17.313-0.574,20.703-7.648
			c1.68-3.508,2.29-8.059,0.231-11.52c-1.779-2.988-5.66-4.106-8.544-5.646c-3.981-2.122-7.518,3.921-3.533,6.045
			c1.746,0.931,3.573,1.698,5.299,2.665c1.792,1.004,0.989,2.994,0.56,4.658c-1.227,4.752-7.523,7.765-11.727,5.048
			c-4.626-2.99-2.876-12.988,3.222-12.267C49.019,166.677,48.967,159.671,44.541,159.146L44.541,159.146z"/>
	</g>
</g>
<g>
	<g>
		<path fill="#F13C87" d="M64.975,152.811c3.314,7.674,3.213,15.357,1.458,23.401c-0.96,4.399,5.788,6.271,6.75,1.861
			c2.193-10.054,1.947-19.278-2.165-28.796C69.234,145.145,63.205,148.712,64.975,152.811L64.975,152.811z"/>
	</g>
</g>
<g>
	<g>
		<path fill="#F13C87" d="M73.071,167.593c3.749,0.025,7.487,0.341,11.236,0.363c4.515,0.028,4.513-6.972,0-7
			c-3.749-0.022-7.488-0.338-11.236-0.363C68.556,160.563,68.559,167.563,73.071,167.593L73.071,167.593z"/>
	</g>
</g>
<g>
	<g>
		<path fill="#F13C87" d="M77.67,147.627c0.873,4.479,2.965,8.655,3.5,13.203c0.617,5.246-1.222,10.658-1.088,15.947
			c0.114,4.506,7.115,4.517,7,0c-0.136-5.362,1.233-10.588,1.088-15.947c-0.141-5.203-2.768-10.02-3.75-15.064
			C83.557,141.338,76.811,143.218,77.67,147.627L77.67,147.627z"/>
	</g>
</g>
<g>
	<g>
		<path fill="#F13C87" d="M73.276,181.74c-5.372-1.166-10.468,1.615-12.276,6.828c-2.029,5.854,3.394,10.437,8.796,10.68
			c4.898,0.22,9.679-3.604,12.302-7.41c1.153-1.674,1.914-4.09,1.189-6.079c-1.031-2.829-3.77-3.829-6.592-3.78
			c-4.509,0.08-4.517,7.08,0,7c0.287-0.013,0.574-0.011,0.861,0.008c-0.638-0.022,0.654,0.306-0.205-0.094
			c-0.237-0.166-0.424-0.375-0.563-0.629c-0.102-0.143-0.226-1.357-0.228-0.679c0.002-0.599-0.102,0.042-0.149,0.134
			c-0.308,0.59-0.477,0.777-0.718,1.063c-0.857,1.013-1.726,1.718-2.782,2.382c-0.92,0.578-2.075,1.025-2.745,1.078
			c-0.76,0.059-1.828-0.235-2.442-0.84c0.172,0.256,0.151,0.212-0.064-0.129c0.323,0.533-0.05-0.252-0.083-0.402
			c0.07,0.316-0.002,0.189,0.174-0.439c0.135-0.393,0.15-0.436,0.046-0.129c-0.002,0.006,0.608-0.941,0.249-0.486
			c0.417-0.527,0.667-0.709,0.973-0.909c0.814-0.533,1.433-0.624,2.397-0.415C75.816,189.445,77.687,182.697,73.276,181.74
			L73.276,181.74z"/>
	</g>
</g>
<g>
	<g>
		<path fill="#F13C87" d="M90.603,144.602c-0.327,10.877-1.592,22.627,12.044,24.404c3.949,0.516,7.888-0.359,11.803-0.707
			c3.818-0.338,8.05,0.862,11.275-1.929c5.616-4.859,4.401-14.738,4.862-21.404c0.312-4.508-6.69-4.478-7,0
			c-0.346,5.007,0.352,10.981-1.917,15.603c-0.826,1.682-6.794,0.692-8.358,0.832c-3.247,0.287-6.346,0.806-9.62,0.688
			c-9.041-0.319-6.276-11.301-6.09-17.487C97.738,140.084,90.738,140.098,90.603,144.602L90.603,144.602z"/>
	</g>
</g>
<g>
	<g>
		<path fill="#F13C87" d="M122.728,150.807c-8.236-0.897-16.411,0.598-24.647,0.727c-4.51,0.07-4.517,7.07,0,7
			c8.237-0.129,16.412-1.624,24.647-0.727C127.213,158.296,127.165,151.291,122.728,150.807L122.728,150.807z"/>
	</g>
</g>
<g>
	<g>
		<path fill="#F13C87" d="M108.355,168.441c0.331,3.354-0.226,6.658,0.487,9.994c0.944,4.412,7.691,2.541,6.75-1.861
			c-0.567-2.65,0.028-5.442-0.237-8.133c-0.188-1.897-1.45-3.5-3.5-3.5C110.089,164.941,108.167,166.539,108.355,168.441
			L108.355,168.441z"/>
	</g>
</g>
<g>
	<g>
		<path fill="#F13C87" d="M91.557,179.553c14.154,0.768,28.125,2.494,41.888-1.937c4.279-1.378,2.449-8.138-1.86-6.75
			c-13.144,4.231-26.518,2.42-40.027,1.687C87.044,172.309,87.068,179.311,91.557,179.553L91.557,179.553z"/>
	</g>
</g>
<g>
	<g>
		<path fill="#F13C87" d="M100.256,192.24c5.134,0.191,10.354-1.518,15.414-0.193c2.004,0.523,1.449,5.325,1.872,7.049
			c1.075,4.383,7.825,2.521,6.75-1.861c-1.055-4.299-0.169-8.004-4.245-10.87c-5.481-3.855-13.719-0.896-19.79-1.123
			C95.74,185.07,95.756,192.07,100.256,192.24L100.256,192.24z"/>
	</g>
</g>
<g>
	<g>
		<path fill="#F13C87" d="M138.016,148.083c6.244,5.885,13.299,5.446,21.113,7.423c-0.277-2.133-0.559-4.265-0.836-6.396
			c-0.652,0.281-1.255,0.646-1.809,1.089c-3.651,2.586-0.16,8.659,3.533,6.045c0.553-0.443,1.155-0.808,1.809-1.089
			c2.693-1.41,2.027-5.674-0.836-6.397c-6.285-1.589-13.018-0.901-18.026-5.622C139.682,140.041,134.723,144.982,138.016,148.083
			L138.016,148.083z"/>
	</g>
</g>
<g>
	<g>
		<path fill="#F13C87" d="M134.121,164.205c10.748,1.666,21.388,0.581,32.104,1.574c4.496,0.416,4.455-6.588,0-7
			c-10.084-0.936-20.132,0.242-30.242-1.324C131.566,156.771,129.671,163.516,134.121,164.205L134.121,164.205z"/>
	</g>
</g>
<g>
	<g>
		<path fill="#F13C87" d="M150.275,166.756c-6.934,0.023-12.787,4.783-14.112,11.631c-1.441,7.457,3.666,13.678,11.063,14.484
			c7.619,0.83,13.69-4.205,16.348-11.039c2.789-7.175-1.555-13.628-8.947-14.354c-4.492-0.439-4.45,6.563,0,7
			c3.313,0.326,3.131,3.445,2.021,5.92c-1.662,3.705-5.201,6.166-9.313,5.455c-8.114-1.402-3.738-12.074,2.94-12.099
			C154.789,173.74,154.79,166.74,150.275,166.756L150.275,166.756z"/>
	</g>
</g>
<g>
	<g>
		<path fill="#F13C87" d="M171.361,157.867c4.355,3.938,3.084,11.635,2.89,16.99c-0.144,3.918-1.033,8.403-0.166,12.274
			c0.987,4.404,7.735,2.536,6.75-1.86c-0.808-3.604,0.466-10.172,0.498-14.567c0.048-6.416,0.101-13.156-5.022-17.786
			C172.972,149.898,168.006,154.834,171.361,157.867L171.361,157.867z"/>
	</g>
</g>
<g>
	<g>
		<path fill="#F13C87" d="M178.188,175.564c4.239,0.065,8.743,1.203,12.891-0.125c4.281-1.371,2.449-8.131-1.861-6.75
			c-3.422,1.098-7.505-0.07-11.029-0.125C173.67,168.496,173.677,175.496,178.188,175.564L178.188,175.564z"/>
	</g>
</g>
<g>
	<g>
		<path fill="#F13C87" d="M191.723,154.307c-0.035,6.604-0.275,14.012,5.525,18.459c7.154,5.485,16.008,4.147,24.273,2.676
			c4.438-0.791,2.553-7.536-1.861-6.75c-6.09,1.084-12.184,2.213-17.788-1.133c-4.142-2.473-3.171-9.242-3.149-13.252
			C198.746,149.792,191.746,149.794,191.723,154.307L191.723,154.307z"/>
	</g>
</g>
<g>
	<g>
		<path fill="#F13C87" d="M224.095,147.375c5.509,8.891,2.277,19.93,2.785,29.768c0.231,4.491,7.233,4.515,7,0
			c-0.584-11.31,2.61-23.047-3.739-33.301C227.768,140.014,221.711,143.525,224.095,147.375L224.095,147.375z"/>
	</g>
</g>
<g>
	<g>
		<path fill="#F13C87" d="M232.191,157.441c3.849,0.024,7.709,0.272,11.444-0.848c4.313-1.293,2.474-8.05-1.86-6.75
			c-3.119,0.936-6.369,0.618-9.584,0.598C227.677,150.414,227.68,157.414,232.191,157.441L232.191,157.441z"/>
	</g>
</g>
<g>
	<g>
		<path fill="#F13C87" d="M232.761,170.73c3.491-1.396,7.351-0.98,11.031-0.963c4.515,0.022,4.513-6.978,0-7
			c-4.271-0.021-8.841-0.406-12.894,1.213c-1.77,0.707-2.992,2.311-2.443,4.306C228.919,169.971,230.986,171.439,232.761,170.73
			L232.761,170.73z"/>
	</g>
</g>
<g>
	<g>
		<path fill="#F13C87" d="M218.213,179.564c-6.523,1.519-11.044,9.326-8.252,15.654c2.783,6.307,11.707,8.198,17.852,6.698
			c5.383-1.313,8.092-6.882,7.25-12.052c-0.875-5.361-5.289-9.553-10.638-10.301c-4.413-0.619-6.315,6.125-1.86,6.75
			c2.16,0.303,4.303,1.17,5.213,3.332c0.619,1.47,0.881,3.814-0.594,4.918c-2.474,1.85-6.968,0.662-9.39-0.664
			c-3.623-1.979-0.783-6.873,2.28-7.586C224.47,185.293,222.605,178.543,218.213,179.564L218.213,179.564z"/>
	</g>
</g>
<g>
	<path fill="#FFFFFF" d="M216.134,106.985"/>
	<g>
		<path fill="#FFFFFF" d="M216.134,110.485c4.515,0,4.515-7,0-7C211.62,103.485,211.62,110.485,216.134,110.485L216.134,110.485z"/>
	</g>
</g>
<g>
	<path fill="#FFFFFF" d="M227.254,105.106"/>
	<g>
		<path fill="#FFFFFF" d="M227.254,108.606c4.514,0,4.514-7,0-7S222.74,108.606,227.254,108.606L227.254,108.606z"/>
	</g>
</g>
<g>
	<path fill="#FFFFFF" d="M238.566,113.593"/>
	<g>
		<path fill="#FFFFFF" d="M238.566,117.094c4.514,0,4.514-7,0-7S234.053,117.094,238.566,117.094L238.566,117.094z"/>
	</g>
</g>
<g>
	<path fill="#FFFFFF" d="M241.788,123.448"/>
	<g>
		<path fill="#FFFFFF" d="M241.788,126.948c4.515,0,4.515-7,0-7S237.273,126.948,241.788,126.948L241.788,126.948z"/>
	</g>
</g>
<g>
	<path fill="#FFFFFF" d="M228.309,115.195c-4.615-1.013-15.496,0.395-18.047,5.524c-3.826,7.956,6.424,6.908,10.78,6.643
		c0.013,5.128,5.128,13.897,11.046,5.645C236.533,126.813,230.111,120.062,228.309,115.195"/>
	<g>
		<path fill="#FFFFFF" d="M229.238,111.82c-7.508-1.374-20.149,0.344-22.772,8.956c-2.967,9.742,7.806,10.519,14.576,10.085
			c-1.167-1.168-2.333-2.334-3.5-3.5c0.37,7.092,5.733,15.238,13.586,11.385c3.997-1.962,6.101-7.104,5.956-11.287
			c-0.171-4.949-3.594-8.825-5.4-13.194c-1.701-4.109-8.477-2.31-6.75,1.861c1.565,3.785,4.088,7.159,5.106,11.151
			c0.403,1.584-1.526,6.934-3.528,5.15c-1.32-1.177-1.882-3.382-1.97-5.066c-0.095-1.81-1.522-3.627-3.5-3.5
			c-1.687,0.107-3.362,0.205-5.054,0.185c-0.979-0.012-1.87-0.144-2.813-0.394c-0.41-0.109-0.506,0.271,0.107-1.166
			c1.736-4.074,10.455-4.582,14.093-3.916C231.789,119.378,233.674,112.632,229.238,111.82L229.238,111.82z"/>
	</g>
</g>
<g>
	<path fill="#F13C87" d="M213.956,105.897"/>
	<g>
		<path fill="#F13C87" d="M213.956,109.397c4.515,0,4.515-7,0-7S209.441,109.397,213.956,109.397L213.956,109.397z"/>
	</g>
</g>
<g>
	<path fill="#F13C87" d="M225.077,104.02"/>
	<g>
		<path fill="#F13C87" d="M225.077,107.52c4.514,0,4.514-7,0-7C220.563,100.52,220.563,107.52,225.077,107.52L225.077,107.52z"/>
	</g>
</g>
<g>
	<path fill="#F13C87" d="M236.391,112.506"/>
	<g>
		<path fill="#F13C87" d="M236.391,116.006c4.514,0,4.514-7,0-7C231.876,109.006,231.876,116.006,236.391,116.006L236.391,116.006z"
			/>
	</g>
</g>
<g>
	<path fill="#F13C87" d="M239.613,122.358"/>
	<g>
		<path fill="#F13C87" d="M239.613,125.857c4.514,0,4.514-7,0-7S235.1,125.857,239.613,125.857L239.613,125.857z"/>
	</g>
</g>
<g>
	<path fill="#F13C87" d="M226.132,114.108c-4.614-1.016-15.491,0.393-18.045,5.525c-3.828,7.952,6.425,6.908,10.778,6.643
		c0.011,5.125,5.131,13.895,11.05,5.645C234.357,125.723,227.938,118.974,226.132,114.108"/>
	<g>
		<path fill="#F13C87" d="M227.063,110.733c-7.508-1.378-20.146,0.346-22.771,8.957c-2.969,9.738,7.806,10.519,14.574,10.085
			c-1.167-1.168-2.333-2.334-3.5-3.5c0.368,7.095,5.737,15.231,13.589,11.383c4-1.961,6.102-7.104,5.955-11.288
			c-0.172-4.949-3.594-8.823-5.402-13.192c-1.701-4.109-8.477-2.31-6.75,1.861c1.566,3.784,4.09,7.158,5.107,11.15
			c0.404,1.584-1.521,6.937-3.527,5.15c-1.32-1.177-1.884-3.38-1.972-5.064c-0.095-1.81-1.522-3.627-3.5-3.5
			c-1.685,0.107-3.362,0.205-5.052,0.184c-0.979-0.012-1.871-0.144-2.813-0.395c-0.411-0.109-0.506,0.273,0.107-1.164
			c1.738-4.076,10.451-4.585,14.092-3.917C229.613,118.293,231.498,111.548,227.063,110.733L227.063,110.733z"/>
	</g>
</g>
<g>
	<g>
		<path fill="#FFFFFF" d="M16.691,117.014c1.416-0.332,2.865-0.31,4.311-0.31c1.944,0,1.944-3.015,0-3.015
			c-1.718,0-3.431,0.023-5.113,0.417C13.998,114.55,14.799,117.457,16.691,117.014L16.691,117.014z"/>
	</g>
</g>
<g>
	<g>
		<path fill="#FFFFFF" d="M29.918,117.217c18.975-10.331-0.771-35.511-17.784-29.15c-8.213,3.07-14.382,15.051-11.349,23.481
			c3.518,9.779,18.322,9.946,26.36,7.162c4.867-1.686,2.775-9.453-2.137-7.752c-5.179,1.793-12.144,2.322-16.402-1.754
			c-3.231-3.093,2.897-11.932,5.726-13.373c8.195-4.177,21.876,8.81,11.528,14.444C21.307,112.753,25.363,119.696,29.918,117.217
			L29.918,117.217z"/>
	</g>
</g>
<g>
	<g>
		<path fill="#FFFFFF" d="M46.002,126.512c3.865-15.383,4.762-31.523-0.269-46.753c-1.611-4.88-9.447-3.054-7.818,1.88
			c4.591,13.902,3.944,28.417,0.409,42.483C37.064,129.135,44.738,131.539,46.002,126.512L46.002,126.512z"/>
	</g>
</g>
<g>
	<g>
		<path fill="#FFFFFF" d="M105.397,82.606c1.065,6.564-1.15,14.596,3.2,20.291c4.064,5.32,12.065,4.741,18.008,4.48
			c6.003-0.264,11.397,0.524,15.032-5.095c5.063-7.831,1.133-14.392,1.188-22.646c0.025-3.87-5.975-3.868-6,0
			c-0.036,5.572,2.738,10.949,1.127,16.413c-1.922,6.51-6.946,5.134-12.501,5.378c-4.658,0.205-11.54,1.012-13.134-4.539
			c-1.446-5.033-0.295-10.707-1.134-15.877C110.564,77.201,104.783,78.824,105.397,82.606L105.397,82.606z"/>
	</g>
</g>
<g>
	<g>
		<path fill="#FFFFFF" d="M142.062,88.644c-10.54-4.517-21.365-0.981-32.324-0.771c-3.864,0.074-3.872,6.074,0,6
			c9.461-0.181,20.202-3.944,29.296-0.048C142.549,95.331,145.608,90.164,142.062,88.644L142.062,88.644z"/>
	</g>
</g>
<g>
	<g>
		<path fill="#FFFFFF" d="M105.389,116.345c13.63,1.186,28.444,2.324,41.393-3.005c3.525-1.452,1.982-7.259-1.596-5.786
			c-12.481,5.138-26.657,3.934-39.797,2.792C101.532,110.01,101.564,116.013,105.389,116.345L105.389,116.345z"/>
	</g>
</g>
<g>
	<g>
		<path fill="#FFFFFF" d="M122.552,117.443c1.807,3.483,2.06,7.786,0.786,11.461c-1.27,3.666,4.527,5.229,5.786,1.596
			c1.798-5.189,1.126-11.232-1.392-16.083C125.951,110.98,120.773,114.016,122.552,117.443L122.552,117.443z"/>
	</g>
</g>
<g>
	<g>
		<path fill="#FFFFFF" d="M153.233,86.622c8.242,0.69,16.416,0.969,24.648,0c3.795-0.446,3.838-6.452,0-6
			c-8.232,0.969-16.406,0.69-24.648,0C149.376,80.3,149.405,86.302,153.233,86.622L153.233,86.622z"/>
	</g>
</g>
<g>
	<g>
		<path fill="#FFFFFF" d="M174.981,93.31c-7.117-0.068-13.871-0.474-20.869,1.02c-5.189,1.109-3.684,11.583-3.401,14.984
			c1.274,15.441,17.36,13.289,28.329,10.91c3.779-0.82,2.177-6.604-1.596-5.786c-7.914,1.717-19.907,4.883-20.851-6.529
			c-0.206-2.507-0.392-5.239,0.185-7.699c0.55-2.343,0.594-0.727-1.069-0.095c0.701-0.267,1.588-0.357,2.31-0.551
			c5.299-1.424,11.545-0.307,16.963-0.255C178.853,99.347,178.849,93.347,174.981,93.31L174.981,93.31z"/>
	</g>
</g>
<g>
	<g>
		<path fill="#FFFFFF" d="M180.418,107.646c5.435,0.36,10.866,0.695,16.313,0.723c3.869,0.02,3.867-5.981,0-6
			c-5.447-0.027-10.881-0.363-16.313-0.723C176.554,101.391,176.578,107.393,180.418,107.646L180.418,107.646z"/>
	</g>
</g>
<g>
	<g>
		<path fill="#FFFFFF" d="M190.937,91.307c2.561,8.928,3.157,17.522,2.273,26.75c-0.369,3.852,5.635,3.816,6,0
			c0.934-9.748,0.213-18.924-2.488-28.344C195.657,85.999,189.867,87.58,190.937,91.307L190.937,91.307z"/>
	</g>
</g>
<g>
	<g>
		<path fill="#FFFFFF" d="M30.828,142.1c7.247,3.764,14.516,6.473,22.791,6.279c4.507-0.104,4.517-7.104,0-7
			c-7.054,0.164-13.08-2.117-19.258-5.324C30.361,133.979,26.821,140.02,30.828,142.1L30.828,142.1z"/>
	</g>
</g>
<g>
	<g>
		<path fill="#FFFFFF" d="M29.852,156.227c8.681,1.594,17.41-0.109,26.097,1.086c4.413,0.609,6.316-6.135,1.861-6.75
			c-8.672-1.193-17.497,0.492-26.097-1.086C27.301,148.668,25.417,155.414,29.852,156.227L29.852,156.227z"/>
	</g>
</g>
<g>
	<g>
		<path fill="#FFFFFF" d="M42.124,157.695c-14.195-1.693-16.222,19.363-6.13,25.709c7.405,4.656,17.229-0.617,20.621-7.697
			c1.68-3.506,2.291-8.059,0.231-11.518c-1.779-2.988-5.659-4.105-8.543-5.643c-3.983-2.119-7.519,3.924-3.533,6.045
			c1.746,0.93,3.573,1.695,5.299,2.662c2.11,1.182,0.815,4.266,0.005,5.957c-1.797,3.752-7.787,6.68-11.355,3.568
			c-3.97-3.459-2.869-12.832,3.406-12.084C46.601,165.229,46.549,158.225,42.124,157.695L42.124,157.695z"/>
	</g>
</g>
<g>
	<g>
		<path fill="#FFFFFF" d="M62.559,151.355c3.311,7.674,3.211,15.357,1.457,23.4c-0.959,4.4,5.789,6.271,6.75,1.861
			c2.192-10.055,1.944-19.277-2.163-28.795C66.818,143.688,60.79,147.258,62.559,151.355L62.559,151.355z"/>
	</g>
</g>
<g>
	<g>
		<path fill="#FFFFFF" d="M70.653,166.141c3.749,0.025,7.488,0.338,11.237,0.361c4.515,0.027,4.513-6.973,0-7
			c-3.749-0.023-7.488-0.336-11.237-0.361C66.138,159.111,66.141,166.111,70.653,166.141L70.653,166.141z"/>
	</g>
</g>
<g>
	<g>
		<path fill="#FFFFFF" d="M75.252,146.172c0.872,4.479,2.965,8.656,3.5,13.205c0.617,5.248-1.222,10.66-1.087,15.951
			c0.115,4.506,7.115,4.516,7,0c-0.137-5.363,1.232-10.59,1.087-15.951c-0.142-5.203-2.768-10.021-3.75-15.066
			C81.141,139.881,74.395,141.762,75.252,146.172L75.252,146.172z"/>
	</g>
</g>
<g>
	<g>
		<path fill="#FFFFFF" d="M70.859,180.287c-5.372-1.166-10.469,1.615-12.276,6.828c-2.029,5.852,3.392,10.439,8.796,10.682
			c4.898,0.217,9.678-3.605,12.301-7.412c1.153-1.674,1.915-4.09,1.189-6.078c-1.031-2.83-3.77-3.83-6.592-3.781
			c-4.509,0.08-4.517,7.08,0,7c0.287-0.012,0.574-0.01,0.861,0.008c-0.638-0.021,0.654,0.307-0.205-0.094
			c-0.237-0.166-0.425-0.375-0.563-0.629c-0.103-0.143-0.227-1.357-0.229-0.678c0.002-0.6-0.102,0.041-0.149,0.133
			c-0.309,0.59-0.478,0.777-0.718,1.063c-0.857,1.014-1.726,1.719-2.782,2.383c-0.919,0.578-2.074,1.027-2.744,1.08
			c-0.76,0.059-1.827-0.234-2.442-0.84c0.172,0.254,0.15,0.211-0.065-0.131c0.323,0.533-0.05-0.252-0.083-0.402
			c0.07,0.318-0.002,0.188,0.174-0.441c0.135-0.391,0.15-0.434,0.046-0.127c-0.002,0.004,0.608-0.941,0.248-0.486
			c0.417-0.527,0.668-0.709,0.974-0.91c0.814-0.533,1.433-0.623,2.397-0.414C73.399,187.994,75.27,181.246,70.859,180.287
			L70.859,180.287z"/>
	</g>
</g>
<g>
	<g>
		<path fill="#FFFFFF" d="M88.183,143.148c-0.325,10.879-1.589,22.625,12.046,24.404c3.949,0.514,7.888-0.363,11.804-0.709
			c3.817-0.334,8.05,0.865,11.274-1.928c5.614-4.861,4.404-14.738,4.861-21.406c0.31-4.508-6.693-4.479-7,0
			c-0.343,5.006,0.352,10.982-1.917,15.604c-0.827,1.686-6.792,0.693-8.357,0.832c-3.247,0.285-6.346,0.807-9.62,0.689
			c-9.041-0.318-6.277-11.299-6.092-17.486C95.318,138.633,88.317,138.645,88.183,143.148L88.183,143.148z"/>
	</g>
</g>
<g>
	<g>
		<path fill="#FFFFFF" d="M120.312,149.352c-8.236-0.896-16.411,0.598-24.648,0.727c-4.51,0.07-4.517,7.07,0,7
			c8.237-0.129,16.412-1.623,24.648-0.727C124.796,156.842,124.749,149.836,120.312,149.352L120.312,149.352z"/>
	</g>
</g>
<g>
	<g>
		<path fill="#FFFFFF" d="M105.938,166.99c0.332,3.352-0.226,6.654,0.488,9.988c0.944,4.414,7.692,2.541,6.75-1.859
			c-0.567-2.65,0.028-5.441-0.238-8.129c-0.188-1.898-1.45-3.5-3.5-3.5C107.672,163.49,105.749,165.088,105.938,166.99
			L105.938,166.99z"/>
	</g>
</g>
<g>
	<g>
		<path fill="#FFFFFF" d="M89.139,178.102c14.155,0.77,28.125,2.49,41.889-1.939c4.279-1.377,2.449-8.139-1.86-6.75
			c-13.144,4.23-26.519,2.424-40.028,1.689C84.626,170.855,84.65,177.857,89.139,178.102L89.139,178.102z"/>
	</g>
</g>
<g>
	<g>
		<path fill="#FFFFFF" d="M97.839,190.789c4.764,0.178,9.549-1.27,14.292-0.49c3.469,0.57,2.31,4.529,2.993,7.34
			c1.066,4.385,7.816,2.525,6.75-1.859c-1.044-4.297-0.208-7.811-4.114-10.789c-5.306-4.045-13.946-0.979-19.921-1.199
			C93.323,183.623,93.339,190.623,97.839,190.789L97.839,190.789z"/>
	</g>
</g>
<g>
	<g>
		<path fill="#FFFFFF" d="M135.597,146.629c6.246,5.883,13.303,5.447,21.117,7.426c-0.277-2.133-0.559-4.264-0.836-6.396
			c-0.652,0.281-1.258,0.645-1.813,1.088c-3.656,2.58-0.164,8.652,3.533,6.045c0.555-0.443,1.158-0.807,1.813-1.088
			c2.699-1.406,2.023-5.674-0.836-6.396c-6.285-1.592-13.02-0.908-18.03-5.625C137.263,138.588,132.303,143.529,135.597,146.629
			L135.597,146.629z"/>
	</g>
</g>
<g>
	<g>
		<path fill="#FFFFFF" d="M131.703,162.752c10.747,1.666,21.386,0.586,32.103,1.574c4.496,0.416,4.456-6.588,0-7
			c-10.084-0.93-20.131,0.242-30.24-1.324C129.149,155.318,127.253,162.063,131.703,162.752L131.703,162.752z"/>
	</g>
</g>
<g>
	<g>
		<path fill="#FFFFFF" d="M147.856,165.303c-6.933,0.023-12.787,4.783-14.111,11.629c-1.442,7.459,3.667,13.68,11.064,14.484
			c7.618,0.832,13.688-4.203,16.346-11.035c2.789-7.176-1.555-13.629-8.948-14.354c-4.492-0.439-4.45,6.564,0,7
			c3.313,0.324,3.132,3.443,2.022,5.92c-1.662,3.705-5.199,6.164-9.313,5.451c-8.113-1.402-3.741-12.072,2.94-12.096
			C152.371,172.289,152.372,165.289,147.856,165.303L147.856,165.303z"/>
	</g>
</g>
<g>
	<g>
		<path fill="#FFFFFF" d="M168.942,156.414c4.355,3.939,3.086,11.633,2.893,16.992c-0.143,3.914-1.037,8.404-0.165,12.271
			c0.993,4.402,7.741,2.535,6.75-1.861c-0.812-3.598,0.465-10.174,0.497-14.564c0.048-6.418,0.098-13.156-5.023-17.787
			C170.556,148.443,165.589,153.379,168.942,156.414L168.942,156.414z"/>
	</g>
</g>
<g>
	<g>
		<path fill="#FFFFFF" d="M175.769,174.113c4.241,0.064,8.744,1.199,12.895-0.125c4.281-1.367,2.451-8.127-1.861-6.75
			c-3.425,1.094-7.507-0.07-11.033-0.125C171.251,167.045,171.258,174.045,175.769,174.113L175.769,174.113z"/>
	</g>
</g>
<g>
	<g>
		<path fill="#FFFFFF" d="M189.306,152.852c-0.035,6.605-0.277,14.016,5.525,18.461c7.156,5.482,16.008,4.146,24.275,2.676
			c4.438-0.789,2.551-7.535-1.861-6.75c-6.092,1.084-12.184,2.211-17.79-1.135c-4.144-2.471-3.173-9.24-3.149-13.252
			C196.328,148.338,189.328,148.34,189.306,152.852L189.306,152.852z"/>
	</g>
</g>
<g>
	<g>
		<path fill="#FFFFFF" d="M221.677,145.922c5.51,8.891,2.276,19.926,2.788,29.766c0.233,4.49,7.233,4.516,7,0
			c-0.588-11.311,2.61-23.045-3.743-33.299C225.351,138.559,219.292,142.072,221.677,145.922L221.677,145.922z"/>
	</g>
</g>
<g>
	<g>
		<path fill="#FFFFFF" d="M229.772,155.99c3.848,0.023,7.709,0.271,11.443-0.85c4.313-1.293,2.475-8.049-1.861-6.75
			c-3.117,0.938-6.367,0.619-9.582,0.6C225.258,148.963,225.261,155.963,229.772,155.99L229.772,155.99z"/>
	</g>
</g>
<g>
	<g>
		<path fill="#FFFFFF" d="M230.344,169.277c3.49-1.396,7.351-0.98,11.03-0.965c4.516,0.023,4.514-6.977,0-7
			c-4.271-0.02-8.842-0.404-12.893,1.215c-1.77,0.709-2.992,2.311-2.443,4.307C226.501,168.518,228.569,169.988,230.344,169.277
			L230.344,169.277z"/>
	</g>
</g>
<g>
	<g>
		<g>
			<path fill="#F13C87" d="M75.683,86.342c-5.46,0.451-10.908,0.09-16.366-0.04c-5.701-0.138-5.422,6.812,0.238,6.949
				c5.458,0.13,10.907,0.492,16.369,0.04C81.581,92.824,81.373,85.873,75.683,86.342L75.683,86.342z"/>
		</g>
	</g>
	<g>
		<g>
			<path fill="#F13C87" d="M59.066,123.938c9.302-8.487,17.174-19.062,21.082-32.146c1.252-4.192-4.268-7.084-5.534-2.845
				c-3.569,11.943-10.55,21.537-19.058,29.297C52.523,121.011,56.025,126.712,59.066,123.938L59.066,123.938z"/>
		</g>
	</g>
	<g>
		<g>
			<path fill="#F13C87" d="M71.261,112.06c2.984,2.63,5.49,5.85,8.133,8.908c2.762,3.192,6.668-2.077,3.928-5.247
				c-2.645-3.057-5.151-6.278-8.136-8.908C72.096,104.089,68.152,109.32,71.261,112.06L71.261,112.06z"/>
		</g>
	</g>
	<g>
		<g>
			<path fill="#F13C87" d="M93,126.662c2.032-13.48,2.3-27.539-0.919-40.647c-1.032-4.201-5.632-2.405-4.588,1.842
				c2.938,11.967,2.791,24.605,0.933,36.93C87.763,129.18,92.335,131.066,93,126.662L93,126.662z"/>
		</g>
	</g>
	<g>
		<g>
			<path fill="#F13C87" d="M99.568,127.177c2.033-13.48,2.301-27.538-0.918-40.648c-1.032-4.201-5.631-2.405-4.588,1.842
				c2.938,11.967,2.792,24.604,0.933,36.931C94.331,129.694,98.903,131.58,99.568,127.177L99.568,127.177z"/>
		</g>
	</g>
	<g>
		<g>
			<path fill="#F13C87" d="M89.696,101.014c-1.979,0.364-3.977-0.209-5.971-0.516c-2.083-0.323-1.787,7.713,0.281,8.034
				c1.994,0.307,3.993,0.881,5.972,0.517C92.028,108.671,91.758,100.636,89.696,101.014L89.696,101.014z"/>
		</g>
	</g>
</g>
<g>
	<g>
		<path fill="#FFFFFF" d="M215.797,178.113c-6.521,1.52-11.046,9.32-8.254,15.65c2.782,6.309,11.707,8.199,17.853,6.699
			c5.383-1.314,8.092-6.881,7.248-12.051c-0.873-5.361-5.289-9.551-10.639-10.301c-4.413-0.619-6.314,6.125-1.861,6.75
			c2.162,0.303,4.305,1.17,5.217,3.332c0.619,1.471,0.879,3.814-0.594,4.918c-2.474,1.848-6.969,0.66-9.391-0.662
			c-3.624-1.982-0.779-6.875,2.282-7.588C222.054,183.838,220.188,177.09,215.797,178.113L215.797,178.113z"/>
	</g>
</g>
<g>
	<g>
		<g>
			<path fill="#FFFFFF" d="M73.626,84.401c-5.46,0.451-10.909,0.091-16.366-0.039c-5.701-0.138-5.422,6.812,0.238,6.949
				c5.458,0.13,10.907,0.492,16.368,0.04C79.522,90.883,79.315,83.933,73.626,84.401L73.626,84.401z"/>
		</g>
	</g>
	<g>
		<g>
			<path fill="#FFFFFF" d="M57.008,121.999c9.303-8.488,17.174-19.063,21.081-32.146c1.253-4.191-4.267-7.083-5.533-2.845
				c-3.569,11.943-10.55,21.537-19.058,29.297C50.466,119.071,53.968,124.771,57.008,121.999L57.008,121.999z"/>
		</g>
	</g>
	<g>
		<g>
			<path fill="#FFFFFF" d="M69.203,110.119c2.985,2.63,5.49,5.85,8.134,8.908c2.761,3.192,6.667-2.078,3.927-5.247
				c-2.644-3.057-5.151-6.279-8.135-8.908C70.039,102.148,66.095,107.379,69.203,110.119L69.203,110.119z"/>
		</g>
	</g>
	<g>
		<g>
			<path fill="#FFFFFF" d="M90.942,124.721c2.033-13.48,2.3-27.538-0.919-40.647c-1.031-4.201-5.63-2.405-4.587,1.841
				c2.938,11.967,2.792,24.605,0.932,36.93C85.705,127.239,90.277,129.125,90.942,124.721L90.942,124.721z"/>
		</g>
	</g>
	<g>
		<g>
			<path fill="#FFFFFF" d="M97.51,125.236c2.033-13.48,2.3-27.539-0.919-40.648c-1.031-4.201-5.63-2.405-4.588,1.842
				c2.938,11.967,2.792,24.604,0.933,36.931C92.273,127.754,96.846,129.64,97.51,125.236L97.51,125.236z"/>
		</g>
	</g>
	<g>
		<g>
			<path fill="#FFFFFF" d="M87.638,99.074c-1.979,0.364-3.977-0.209-5.971-0.517c-2.083-0.323-1.787,7.713,0.281,8.035
				c1.994,0.307,3.992,0.881,5.972,0.517C89.97,106.73,89.7,98.696,87.638,99.074L87.638,99.074z"/>
		</g>
	</g>
</g>
</svg>
